<?xml version="1.0" encoding="UTF-8" standalone="no"?>
<!-- Created with Inkscape (http://www.inkscape.org/) -->

<svg
   width="210mm"
   height="297mm"
   viewBox="0 0 210 297"
   version="1.1"
   id="svg6508"
   inkscape:version="1.1.2 (b8e25be833, 2022-02-05)"
   sodipodi:docname="baum.svg"
   xmlns:inkscape="http://www.inkscape.org/namespaces/inkscape"
   xmlns:sodipodi="http://sodipodi.sourceforge.net/DTD/sodipodi-0.dtd"
   xmlns="http://www.w3.org/2000/svg"
   xmlns:svg="http://www.w3.org/2000/svg">
  <sodipodi:namedview
     id="namedview6510"
     pagecolor="#ffffff"
     bordercolor="#666666"
     borderopacity="1.0"
     inkscape:pageshadow="2"
     inkscape:pageopacity="0.0"
     inkscape:pagecheckerboard="0"
     inkscape:document-units="mm"
     showgrid="false"
     inkscape:zoom="1.1326109"
     inkscape:cx="724.87385"
     inkscape:cy="428.21415"
     inkscape:window-width="2560"
     inkscape:window-height="1377"
     inkscape:window-x="-8"
     inkscape:window-y="-8"
     inkscape:window-maximized="1"
     inkscape:current-layer="layer1" />
  <defs
     id="defs6505" />
  <g
     inkscape:label="Ebene 1"
     inkscape:groupmode="layer"
     id="layer1">
    <path
       style="fill:#000000;stroke-width:0.0846667"
       d="m 127.48657,29.953771 c -0.0688,2.048694 0.42056,4.867797 1.2228,7.039224 1.06658,2.886977 3.01363,5.745772 5.22719,7.67495 0.24895,0.216961 0.5079,0.451009 0.57546,0.520117 0.0675,0.06911 0.56953,0.444335 1.1155,0.833844 1.79155,1.278141 4.02435,2.3347 6.17036,2.919813 0.78531,0.214113 2.63418,0.569093 3.03439,0.5826 0.28836,0.0097 0.0865,0.278218 -0.33714,0.448613 -1.22314,0.49184 -3.01104,0.877189 -4.63383,0.998737 -2.30476,0.172623 -5.29445,-0.366444 -7.23631,-1.304772 l -0.4439,-0.214506 0.38858,0.957793 c 1.10317,2.71905 2.38631,4.728968 4.37474,6.852641 3.5393,3.780041 8.49033,6.152273 13.73469,6.580821 0.91547,0.07482 1.07783,0.10862 1.0527,0.218937 -0.0332,0.145364 -0.74362,0.361921 -2.29288,0.698852 -4.33634,0.94305 -9.23846,0.679819 -13.59608,-0.730076 -0.47919,-0.155043 -0.88632,-0.267811 -0.90474,-0.250603 -0.0401,0.03747 0.55433,1.948928 0.8325,2.677196 2.35872,6.175011 7.13964,10.158997 14.29778,11.914482 1.55943,0.382442 3.36426,0.654571 5.59631,0.843803 1.97589,0.167472 2.21854,0.224948 1.84896,0.437676 -1.07632,0.619527 -2.35698,1.059278 -3.53637,1.214312 -2.38556,0.313606 -4.45416,0.07259 -9.17792,-1.069334 -8.17622,-1.976525 -9.98838,-2.280559 -15.20278,-2.550635 l -3.02327,-0.156587 0.085,-2.525366 0.085,-2.525358 -0.84618,-0.02859 -0.84619,-0.02859 -0.085,2.525539 -0.085,2.525537 -2.98455,-0.04902 c -4.61074,-0.07571 -7.06862,0.12588 -12.29652,1.008295 -6.24583,1.054236 -6.86505,1.14031 -8.82591,1.226814 -2.378554,0.104912 -4.315288,-0.283583 -5.999956,-1.203594 -1.354643,-0.739779 -1.329161,-0.793506 0.383407,-0.808226 6.191209,-0.05326 10.668999,-1.124927 14.358889,-3.436513 0.51558,-0.323 0.95802,-0.586566 0.98319,-0.585709 0.0252,8.48e-4 -0.009,0.06641 -0.0754,0.145699 -0.10961,0.130457 -0.10677,0.133672 0.0299,0.0337 0.0831,-0.06075 0.13493,-0.13856 0.11522,-0.172983 -0.0197,-0.03443 0.30555,-0.340586 0.72279,-0.680359 2.22581,-1.812508 3.87496,-3.968635 5.16104,-6.747624 0.52522,-1.134909 1.0447,-2.505935 0.97696,-2.578402 -0.019,-0.02046 -0.29636,0.03222 -0.61619,0.116891 -4.54895,1.204518 -9.38708,1.163111 -13.90114,-0.118969 -1.52821,-0.434048 -2.23108,-0.697857 -2.25448,-0.846211 -0.0176,-0.111827 0.14648,-0.134686 1.06343,-0.148092 4.15571,-0.06075 8.5138,-1.429531 11.73679,-3.686256 0.54666,-0.382768 0.72554,-0.456505 0.52316,-0.215655 -0.10885,0.129552 -0.10624,0.133302 0.0257,0.03699 0.0808,-0.05891 0.13257,-0.152474 0.11513,-0.207904 -0.0174,-0.05542 0.14188,-0.222421 0.35402,-0.37111 1.06811,-0.748676 2.56574,-2.23077 3.77896,-3.739774 0.99656,-1.239519 2.39713,-3.603789 2.77009,-4.676118 l 0.0669,-0.192415 -0.32913,0.132013 c -0.6607,0.265005 -2.23437,0.65087 -3.18902,0.781941 -2.76366,0.379441 -5.53056,0.02745 -8.09723,-1.030106 -1.4241,-0.586773 -1.41575,-0.664265 0.0871,-0.806921 7.01244,-0.6657 13.04515,-4.971432 15.93482,-11.373154 0.91597,-2.029257 1.57587,-4.727492 1.64307,-6.718399 0.0215,-0.623859 0.0369,-0.679811 0.19219,-0.67457 0.15009,0.0051 0.16733,0.06208 0.1524,0.504458 z"
       id="path12918" />
    <path
       style="fill:#000000;stroke-width:0.0846667"
       d="m 8.0016656,69.542025 c -1.67911,-0.19038 -3.30901,-0.67207 -4.61433,-1.3637 -0.84767,-0.44913 -1.15351,-0.68126 -1.0718,-0.81347 0.0272,-0.044 0.95447,-0.10392 2.06344,-0.13327 5.03696,-0.13332 9.3712904,-0.954 13.3593604,-2.52952 2.86072,-1.13016 5.67729,-2.87655 7.60831,-4.7175 0.27298,-0.26024 0.54879,-0.46793 0.61292,-0.46155 0.0641,0.006 0.0951,-0.0233 0.0687,-0.0658 -0.0263,-0.0426 0.0734,-0.19069 0.22153,-0.3291 0.28711,-0.26819 0.38433,-0.31791 0.28518,-0.14583 -0.0335,0.0582 0.0404,0.0135 0.16433,-0.0994 0.12392,-0.11289 0.22532,-0.22357 0.22532,-0.24596 0,-0.0224 -0.0762,0.0283 -0.16933,0.11255 -0.3487,0.31557 -0.15013,0.01 0.40216,-0.61913 2.05857,-2.34448 3.87797,-5.67252 5.02643,-9.19432 0.1808,-0.55446 0.32874,-1.02024 0.32874,-1.03507 0,-0.0148 -0.0965,0.01 -0.21433,0.0545 -0.51282,0.19497 -2.80372,0.78408 -3.93221,1.01118 -5.60344,1.12761 -11.38329,0.81193 -17.02826,-0.93004 -1.19353,-0.36831 -1.12626,-0.46736 0.36797,-0.54192 4.67807,-0.23342 9.02635,-1.50076 12.93283,-3.76936 1.43719,-0.83462 3.37425,-2.25225 4.48733,-3.28405 0.31683,-0.29368 0.52003,-0.37301 0.32787,-0.12799 -0.10515,0.13408 -0.1022,0.13719 0.031,0.0327 0.081,-0.0635 0.12644,-0.14907 0.10103,-0.19018 -0.0254,-0.0411 0.28933,-0.4098 0.69943,-0.81929 2.5094,-2.50573 4.48244,-5.43619 5.902596,-8.76687 l 0.44894,-1.05289 -0.58675,0.24196 c -1.500926,0.61893 -3.481456,1.1262 -5.273146,1.3506 -1.0825,0.13557 -3.71293,0.11732 -4.82889,-0.0335 -1.81156,-0.24485 -3.67667,-0.74772 -5.30884,-1.43135 -0.95462,-0.39985 -0.89634,-0.51287 0.31639,-0.61349 2.69278,-0.22341 6.5651,-1.3597 8.89,-2.60867 1.9355,-1.03978 3.15306,-1.84755 4.58234,-3.04011 0.66963,-0.55871 0.868506,-0.68413 0.7421,-0.46794 -0.034,0.0582 0.0209,0.0332 0.122006,-0.0555 0.20542,-0.18018 0.25603,-0.30032 0.0569,-0.13505 -0.351046,0.29136 -0.0163,-0.0798 1.03717,-1.14994 3.045572,-3.09376 5.278762,-7.02924 6.366552,-11.21953 0.44843,-1.7274001 0.66403,-3.0924301 0.78437,-4.9660201 0.0898,-1.3978 0.11385,-1.54517 0.25241,-1.54517 0.13621,0 0.15317,0.0827 0.15317,0.74729 0,2.3568 0.59808,5.5025901 1.52884,8.0414501 1.17241,3.19799 3.3895,6.74448 5.48723,8.77743 0.41405,0.40125 0.60054,0.70051 0.28643,0.45959 -0.0815,-0.0625 -0.0569,-0.0112 0.0546,0.11402 0.11155,0.12522 0.23364,0.20862 0.2713,0.18533 0.0977,-0.0604 0.99953,0.74757 0.96436,0.86404 -0.0161,0.0532 0.0728,0.1866 0.19748,0.29634 l 0.22672,0.19951 -0.20526,-0.23284 c -0.29604,-0.33582 -0.156,-0.28664 0.3616,0.127 1.81892,1.45358 2.95986,2.18709 4.839,3.11098 1.68716,0.8295 3.26321,1.41806 4.95676,1.85105 1.24601,0.31856 3.44382,0.68947 4.08547,0.68947 0.36909,0 0.56743,0.0711 0.56743,0.20333 0,0.13024 -1.7923,0.83228 -3.04486,1.19265 -4.13569,1.18988 -9.16713,0.92713 -12.97162,-0.6774 l -0.65247,-0.27518 0.15641,0.39214 c 0.97936,2.45536 2.22441,4.67166 3.68267,6.55541 0.28098,0.36297 0.60612,0.78387 0.72255,0.93532 0.54412,0.7079 2.46784,2.66856 3.4231,3.48886 4.66285,4.00403 10.49218,6.27579 16.96039,6.60963 0.84171,0.0434 1.12183,0.0857 1.12183,0.16933 0,0.19012 -2.67406,0.96422 -4.61433,1.33577 -5.18255,0.99245 -10.49673,0.79043 -15.55482,-0.59131 -0.59226,-0.16179 -1.23043,-0.34836 -1.41818,-0.4146 -0.18774,-0.0662 -0.34134,-0.0871 -0.34134,-0.0463 0,0.19245 0.79954,2.45396 1.22834,3.47439 1.79391,4.26898 4.3117,7.51873 7.91566,10.21684 0.95681,0.71631 2.18488,1.45732 3.54049,2.1363 4.2717,2.13954 9.49733,3.30512 15.49112,3.45528 1.0842,0.0272 1.9928,0.0842 2.01912,0.12681 0.0872,0.14103 -0.21524,0.37379 -1.0493,0.80762 -3.02818,1.57512 -6.50129,1.83866 -11.93646,0.90575 -0.68711,-0.11794 -2.0875,-0.3866 -3.11197,-0.59702 -7.56461,-1.55376 -9.37239,-1.88795 -12.065,-2.23038 -2.85686,-0.36333 -4.29758,-0.44926 -8.42433,-0.50247 l -4.064,-0.0524 -0.0219,-4.67784 -0.0219,-4.67784 h -0.80362 -0.80361 v 4.689 4.689 l -4.1275,0.0451 c -4.212458,0.0461 -5.339068,0.11227 -8.318488,0.48874 -2.69256,0.34022 -4.64774,0.69692 -11.05734,2.01724 -3.43684,0.70797 -4.3916,0.87999 -6.17787,1.11311 -1.52286,0.19874 -4.1971104,0.28208 -5.2437904,0.1634 z"
       id="path12330" />
    <path
       style="fill:#000000;stroke-width:0.0846667"
       d="m 126.75043,13.728029 c 1.68333,0.148543 3.32471,0.58953 4.64683,1.248469 0.85858,0.4279 1.17011,0.652348 1.09171,0.78655 -0.0261,0.04466 -0.95159,0.127636 -2.05948,0.18457 -5.03209,0.258603 -9.34466,1.186872 -13.29229,2.861131 -2.83172,1.200988 -5.60396,3.016917 -7.48858,4.905343 -0.26642,0.266951 -0.53698,0.481439 -0.60125,0.476657 -0.0642,-0.0044 -0.0945,0.02566 -0.067,0.06749 0.0273,0.04193 -0.0686,0.192457 -0.21327,0.33451 -0.28035,0.27525 -0.3763,0.327374 -0.28146,0.15288 0.032,-0.05902 -0.0407,-0.01249 -0.16181,0.103458 -0.12107,0.115939 -0.21969,0.229107 -0.21913,0.25149 5.6e-4,0.02239 0.0755,-0.03019 0.16648,-0.116728 0.34074,-0.324148 0.14983,-0.01373 -0.38663,0.628945 -1.9996,2.394973 -3.73563,5.767251 -4.79611,9.316534 -0.16695,0.55879 -0.30326,1.02811 -0.30289,1.04293 3.7e-4,0.0148 0.0962,-0.0124 0.21291,-0.0598 0.50781,-0.20767 2.78334,-0.8536 3.90583,-1.10871 5.57365,-1.26668 11.35957,-1.09491 17.04613,0.50607 1.20233,0.3385 1.13754,0.43919 -0.35437,0.55091 -4.67081,0.34974 -8.98621,1.72488 -12.83504,4.08997 -1.41598,0.87013 -3.31717,2.33551 -4.40423,3.39469 -0.30943,0.30147 -0.51059,0.38583 -0.32458,0.13611 0.10178,-0.13666 0.0988,-0.13969 -0.0318,-0.0319 -0.0794,0.0655 -0.1227,0.15217 -0.0963,0.19263 0.0264,0.0405 -0.27905,0.41687 -0.67883,0.83644 -2.44628,2.56739 -4.3458,5.54604 -5.682642,8.91102 l -0.422604,1.06373 0.580548,-0.25648 c 1.485058,-0.65608 3.452358,-1.21247 5.237908,-1.48138 1.07879,-0.16247 3.70886,-0.20967 4.82823,-0.0867 1.81709,0.1997 3.69414,0.65601 5.34281,1.29882 0.96427,0.37597 0.90882,0.49041 -0.30103,0.62117 -2.68639,0.29034 -6.52924,1.52262 -8.82234,2.82905 -1.90903,1.08762 -3.10611,1.92543 -4.50528,3.15319 -0.65552,0.57519 -0.85122,0.70552 -0.73023,0.48625 0.0325,-0.059 -0.0217,-0.0327 -0.12058,0.0585 -0.20088,0.18524 -0.24848,0.3066 -0.0535,0.13642 0.34368,-0.3 0.0183,0.0794 -1.008241,1.17539 -2.967653,3.16858 -5.102233,7.15841 -6.085427,11.37447 -0.405312,1.73802 -0.586882,3.10799 -0.660567,4.984 -0.05499,1.3996 -0.07537,1.54752 -0.213887,1.55097 -0.136168,0.003 -0.15518,-0.0789 -0.171716,-0.74325 -0.05864,-2.35607 -0.734805,-5.48601 -1.728446,-8.00092 -1.251617,-3.16783 -3.556261,-6.65806 -5.703923,-8.63819 -0.423905,-0.39082 -0.617784,-0.68535 -0.297777,-0.45232 0.08303,0.0605 0.05716,0.01 -0.05742,-0.11262 -0.114631,-0.12241 -0.238758,-0.20275 -0.275827,-0.17853 -0.09617,0.0628 -1.017821,-0.72247 -0.985559,-0.83977 0.01477,-0.0536 -0.07742,-0.18473 -0.204793,-0.29134 l -0.231613,-0.1938 0.210989,0.22766 c 0.304304,0.32835 0.163084,0.28267 -0.364648,-0.11797 -1.854523,-1.40787 -3.01336,-2.11276 -4.914906,-2.98961 -1.707276,-0.78727 -3.297483,-1.33643 -5.001282,-1.72715 -1.25355,-0.28746 -3.459908,-0.60357 -4.101359,-0.58761 -0.368976,0.009 -0.569024,-0.057 -0.572314,-0.18915 -0.0032,-0.1302 1.771037,-0.87661 3.014243,-1.26804 4.104804,-1.29241 9.141224,-1.15493 12.984459,0.35445 l 0.659115,0.25886 -0.166119,-0.38813 c -1.040149,-2.43023 -2.339957,-4.61487 -3.844635,-6.46175 -0.289924,-0.35587 -0.625436,-0.76855 -0.745598,-0.91705 -0.561565,-0.69415 -2.533473,-2.60634 -3.508847,-3.40261 -4.761031,-3.88678 -10.64508,-6.01279 -17.119594,-6.18559 -0.842529,-0.0224 -1.123615,-0.0578 -1.125696,-0.14137 -0.0047,-0.19006 2.649241,-1.03045 4.579666,-1.45017 5.156253,-1.12109 10.473814,-1.05135 15.564717,0.20411 0.596102,0.147 1.238717,0.31764 1.428057,0.37919 0.189329,0.0615 0.343401,0.0786 0.342386,0.0378 -0.0048,-0.19239 -0.860349,-2.43331 -1.314406,-3.442752 -1.899577,-4.223006 -4.497445,-7.409104 -8.167421,-10.016709 -0.974337,-0.692281 -2.220464,-1.402506 -3.592548,-2.047547 -4.323611,-2.032593 -9.576624,-3.067793 -15.572295,-3.068775 -1.084541,-2.16e-4 -1.994278,-0.03459 -2.02165,-0.07653 -0.09068,-0.138817 0.205873,-0.37903 1.028881,-0.833478 2.988052,-1.649976 6.453529,-1.999849 11.910228,-1.202461 0.689832,0.100808 2.096473,0.334541 3.125862,0.519406 7.600927,1.365064 9.416462,1.654171 12.116759,1.9295 2.865015,0.292136 4.307427,0.342192 8.434224,0.292708 l 4.064045,-0.04873 0.138283,4.675847 0.138283,4.675847 0.803371,-0.01999 0.803361,-0.01999 -0.116667,-4.687548 -0.116667,-4.687548 4.1251,-0.147783 c 4.210009,-0.150896 5.334619,-0.245077 8.303749,-0.695561 2.68326,-0.407109 4.62896,-0.812345 11.00373,-2.291734 3.41816,-0.793263 4.36834,-0.988985 6.14826,-1.266477 1.51744,-0.236569 4.18879,-0.386422 5.2381,-0.293821 z"
       id="path12330-8" />
    <path
       style="fill:#000000;stroke-width:0.0846667"
       d="m 149.30412,166.63379 c -0.0191,-0.0574 0.13302,-0.41009 0.33815,-0.78373 3.34918,-6.10068 5.57851,-13.9368 5.90191,-20.74535 0.0265,-0.5588 0.0696,-1.41249 0.0958,-1.89709 l 0.0475,-0.88108 -2.05971,0.0526 c -5.26649,0.13444 -9.25875,0.71796 -19.47811,2.84696 -5.07799,1.0579 -7.05476,1.36796 -9.7525,1.52969 -2.44797,0.14676 -4.94265,-0.11922 -6.78102,-0.72297 -0.78422,-0.25754 -2.76369,-1.21028 -3.12457,-1.50387 -0.41861,-0.34056 -0.25133,-0.39788 1.16165,-0.39804 5.25627,-8.4e-4 11.02021,-0.95935 15.51017,-2.57997 3.65184,-1.31812 7.29639,-3.49283 9.75653,-5.82176 0.31577,-0.29893 0.56767,-0.47512 0.62691,-0.4385 0.0632,0.0391 0.0763,0.0244 0.0361,-0.0405 -0.0393,-0.0636 0.17544,-0.34646 0.57229,-0.75392 2.25645,-2.31678 4.26143,-5.43962 5.64554,-8.79321 0.45083,-1.09232 1.19919,-3.22609 1.30682,-3.72613 l 0.0577,-0.26787 -0.76164,0.24493 c -5.95448,1.91486 -13.05846,2.29902 -19.31459,1.04448 -2.31214,-0.46365 -5.24934,-1.30691 -5.24934,-1.50707 0,-0.084 0.30404,-0.1252 1.24884,-0.16901 8.46915,-0.3927 16.01588,-3.76265 21.89797,-9.77843 0.80858,-0.82695 0.97586,-0.97489 0.84846,-0.75034 -0.033,0.0582 0.079,-0.0255 0.24901,-0.18594 0.16997,-0.16048 0.30905,-0.31048 0.30905,-0.33334 0,-0.0229 -0.1143,0.0679 -0.254,0.20178 -0.39579,0.37919 -0.29936,0.1755 0.1916,-0.40472 2.18767,-2.58538 3.94593,-5.47596 5.21636,-8.57571 0.19215,-0.46883 0.34937,-0.87384 0.34937,-0.90002 0,-0.0262 -0.35243,0.0974 -0.78317,0.27454 -1.63254,0.67149 -3.83274,1.22838 -5.83024,1.47568 -1.90397,0.23571 -4.72977,0.16399 -6.72159,-0.17061 -2.11481,-0.35525 -5.79966,-1.57676 -5.79966,-1.92255 0,-0.0787 0.37798,-0.1811 1.24884,-0.338459 4.47795,-0.809168 8.75313,-2.687158 12.46715,-5.476538 1.43346,-1.07659 3.43628,-2.95586 4.47238,-4.19648 0.31091,-0.37228 0.6492,-0.77275 0.75176,-0.88993 0.27354,-0.31256 0.77907,-1.01757 1.50333,-2.09656 2.91773,-4.34676 4.6325,-9.62938 4.85714,-14.96331 l 0.0571,-1.35466 h 0.59267 0.59266 l 0.0239,0.9525 0.0239,0.9525 h 0.79879 0.79879 l 0.0239,-0.9525 0.024,-0.9525 h 0.59266 0.59267 l 0.0184,0.71966 c 0.18772,7.34309 3.06275,14.37447 7.9692,19.49003 0.44412,0.46306 0.68281,0.7743 0.64307,0.83858 -0.042,0.0679 -0.0274,0.0801 0.0433,0.0364 0.0696,-0.043 0.31624,0.13792 0.71158,0.52186 0.73988,0.71853 1.79252,1.58755 2.80467,2.31542 3.5813,2.57542 7.78203,4.34391 12.08795,5.088968 0.7641,0.132219 1.0795,0.220539 1.0795,0.302299 0,0.39145 -3.95975,1.64553 -6.39234,2.02448 -1.45236,0.22626 -5.3105,0.22718 -6.77333,0.002 -1.74971,-0.26979 -4.21785,-0.9572 -5.48217,-1.52685 -0.26776,-0.12065 -0.48683,-0.18225 -0.48683,-0.13691 0,0.0453 0.23144,0.62589 0.51432,1.2901 1.44333,3.38898 3.50319,6.55383 5.98788,9.20002 0.87693,0.93394 1.18873,1.33154 0.77034,0.9823 l -0.20287,-0.16933 0.15947,0.1885 c 0.0877,0.10368 0.18887,0.17035 0.22477,0.14816 0.0359,-0.0222 0.43684,0.29303 0.89095,0.7005 1.99898,1.7936 3.92171,3.16873 6.12433,4.38011 4.47847,2.46305 9.09049,3.74632 14.33864,3.98967 1.47059,0.0682 1.58544,0.16294 0.59267,0.48897 -2.53766,0.83338 -5.38201,1.42669 -8.4455,1.76166 -1.33938,0.14645 -6.08146,0.14758 -7.493,0.002 -2.77303,-0.28643 -5.64734,-0.88358 -8.39667,-1.74445 l -0.39567,-0.12389 0.0749,0.22683 c 0.0412,0.12476 0.21446,0.6642 0.38503,1.19876 1.28775,4.03602 3.59463,8.11821 6.19039,10.95432 0.29243,0.3195 0.51103,0.61434 0.48578,0.65519 -0.0252,0.0409 0.0198,0.0491 0.10019,0.0182 0.11112,-0.0426 0.13332,-0.0228 0.0928,0.0829 -0.0293,0.0764 -0.011,0.16515 0.0407,0.19712 0.0569,0.0352 0.0702,0.0196 0.0336,-0.0396 -0.0943,-0.15254 0.0414,-0.11474 0.19365,0.054 0.38538,0.42696 1.66036,1.55923 2.25546,2.003 0.37151,0.27704 0.69453,0.52703 0.71781,0.55554 0.0233,0.0285 0.38523,0.28392 0.80433,0.56757 3.26378,2.20893 7.16344,3.8196 11.64167,4.80834 3.07829,0.67964 7.3513,1.14201 10.55717,1.14236 0.88775,0 1.30506,0.0307 1.34716,0.0988 0.0877,0.14195 -0.30587,0.43136 -1.24654,0.91664 -3.35345,1.72995 -7.16416,2.06462 -13.04603,1.14574 -1.29658,-0.20256 -2.31045,-0.4024 -9.63443,-1.89906 -6.41211,-1.31033 -10.91726,-1.89962 -15.39688,-2.01397 l -2.06187,-0.0526 0.0558,1.30447 c 0.33542,7.84235 2.11513,14.72395 5.51194,21.313 0.43983,0.85315 0.79968,1.60563 0.79968,1.67217 0,0.10371 -0.85744,0.12097 -6.01133,0.12097 h -6.01134 v -15.49401 -15.49399 h -0.8041 -0.80411 l -0.0214,15.47282 -0.0214,15.47284 -5.98292,0.0217 c -4.68251,0.017 -5.99049,-9.3e-4 -6.01771,-0.0827 z"
       id="path11950" />
    <path
       style="fill:#000000;stroke-width:0.0846667"
       d="m 52.85096,95.789345 c 0,-0.0865 0.72287,-2.38518 1.60639,-5.10822 l 1.6064,-4.95099 -0.22419,-0.16933 c -0.1233,-0.0931 -2.0368,-1.48726 -4.25222,-3.09805 -2.21543,-1.61079 -4.04037,-2.99192 -4.05542,-3.06917 -0.0253,-0.12963 0.38354,-0.14045 5.30484,-0.14045 h 5.33221 l 0.73473,-2.26483 c 2.45832,-7.577907 2.53908,-7.815097 2.65236,-7.791787 0.0706,0.0145 0.57101,1.42555 1.29952,3.664287 0.65159,2.00236 1.38396,4.25026 1.62748,4.99533 l 0.44278,1.35467 5.32202,0.0423 c 3.5287,0.0281 5.33178,0.0716 5.35098,0.12928 0.0159,0.0478 -1.88061,1.47494 -4.21452,3.17139 -2.33392,1.69645 -4.25978,3.12689 -4.27968,3.17877 -0.0199,0.0519 0.68917,2.3253 1.57573,5.05207 0.88655,2.72676 1.61192,4.98147 1.61192,5.01046 0,0.21445 -0.75567,-0.2868 -4.10633,-2.72382 l -3.81,-2.77111 -0.024,-0.90919 -0.024,-0.90918 H 61.5265 60.72503 v 0.91016 0.91017 l -3.84228,2.79071 c -2.11325,1.5349 -3.8848,2.8049 -3.93678,2.82223 -0.052,0.0173 -0.0945,-0.0393 -0.0945,-0.12573 z"
       id="path11352" />
    <path
       style="fill:#000000;stroke-width:0.0846667"
       d="m 150.51036,69.392206 c -0.86637,-0.0667 -1.86767,-0.35979 -2.62222,-0.76759 -0.87077,-0.47058 -0.77678,-0.53563 0.86369,-0.59773 4.4341,-0.16782 8.03648,-1.35755 10.57328,-3.49194 0.92935,-0.78191 0.94637,-0.79914 1.6479,-1.66769 1.05144,-1.30177 1.79271,-2.66578 2.37417,-4.3687 l 0.24167,-0.70779 -0.18827,0.0558 c -0.57845,0.17135 -1.89646,0.4824 -2.55894,0.60393 -1.18762,0.21787 -3.89259,0.25966 -5.29582,0.0818 -1.09288,-0.13849 -3.19864,-0.61858 -3.55888,-0.81137 -0.3516,-0.18817 -0.1185,-0.29186 0.77581,-0.34508 3.35683,-0.19976 6.32172,-1.41355 8.96452,-3.66995 1.52176,-1.29928 3.00523,-3.32934 3.80716,-5.20994 l 0.2347,-0.5504 -0.81274,0.27129 c -0.44702,0.14921 -1.15111,0.33021 -1.56468,0.40222 -0.96777,0.16854 -2.77514,0.16882 -3.74548,8.5e-4 -0.82045,-0.14225 -2.46063,-0.66463 -2.64578,-0.84266 -0.16823,-0.16177 -0.0429,-0.29698 0.27537,-0.29698 0.49405,0 2.12928,-0.33077 2.94203,-0.59509 1.12406,-0.36559 2.69172,-1.1494 3.61286,-1.80639 0.43326,-0.30902 0.81064,-0.56185 0.83862,-0.56185 0.028,0 -0.0214,0.0857 -0.1098,0.1905 -0.14471,0.17157 -0.1376,0.1701 0.0716,-0.0148 0.23184,-0.20492 0.30772,-0.31706 0.14756,-0.21807 -0.0466,0.0288 -0.0818,0.0215 -0.0783,-0.0162 0.004,-0.0377 0.24838,-0.27804 0.54414,-0.53416 1.55456,-1.34616 3.11577,-3.83069 3.75078,-5.969 0.28979,-0.97587 0.49231,-2.11836 0.57404,-3.2385 0.0423,-0.57917 0.0874,-0.78316 0.17322,-0.78316 0.0638,0 0.11668,0.0286 0.11742,0.0635 0.0129,0.60933 0.20584,2.23364 0.33683,2.83514 0.50134,2.30207 1.59554,4.46218 3.10899,6.13758 0.34608,0.38311 0.60829,0.73044 0.5827,0.77185 -0.0256,0.0414 0.0383,0.14706 0.14197,0.23478 l 0.1885,0.15948 -0.16129,-0.1905 c -0.29482,-0.34823 -0.0541,-0.19746 0.69274,0.43378 1.97088,1.66593 4.38641,2.72613 6.94249,3.04714 1.20994,0.15196 1.10238,0.35679 -0.4466,0.85052 -2.04779,0.65272 -4.62505,0.63566 -6.67928,-0.0442 -0.41393,-0.13699 -0.7725,-0.22919 -0.79681,-0.20489 -0.0902,0.0903 1.10273,2.31635 1.65488,3.08801 0.31453,0.43956 0.99964,1.24369 1.52247,1.78696 0.52283,0.54326 0.93255,1.00579 0.9105,1.02785 -0.022,0.0221 0.0645,0.13232 0.1924,0.24504 l 0.2325,0.20495 -0.20525,-0.23284 c -0.1129,-0.12806 -0.18301,-0.23283 -0.15581,-0.23283 0.0272,0 0.399,0.26247 0.8262,0.58328 1.39982,1.05118 2.97345,1.8265 4.74186,2.3363 1.14986,0.33147 1.98935,0.47107 3.25966,0.54205 1.16359,0.065 1.24413,0.20044 0.29633,0.49828 -1.89157,0.59444 -3.64725,0.81788 -5.96039,0.7586 -1.99786,-0.0512 -2.94346,-0.19972 -5.02058,-0.78851 -0.18096,-0.0513 -0.178,-0.0302 0.1096,0.78147 0.61806,1.74425 1.60392,3.46784 2.62921,4.59673 0.27235,0.29986 0.48995,0.59472 0.48357,0.65525 -0.006,0.0605 0.0194,0.0909 0.0573,0.0675 0.0379,-0.0234 0.29075,0.15253 0.56194,0.39097 1.87362,1.64742 4.44532,2.80784 7.40627,3.34191 1.01614,0.18328 3.02689,0.37175 3.98762,0.37378 0.65908,0.001 0.8255,0.0262 0.8255,0.12297 0,0.27979 -1.28964,0.88605 -2.34074,1.10037 -0.88348,0.18013 -2.64125,0.18427 -3.88226,0.009 -0.51224,-0.0723 -2.34103,-0.41514 -4.06399,-0.7619 -4.67559,-0.94099 -5.62203,-1.06185 -8.89,-1.13525 l -2.37067,-0.0532 -0.0225,-2.36651 c -0.0168,-1.76378 -0.0491,-2.38342 -0.127,-2.43287 -0.0575,-0.0365 -0.41879,-0.0669 -0.80296,-0.0676 l -0.6985,-0.002 v 2.44458 2.44457 l -2.43417,0.0436 c -3.30009,0.0591 -4.63403,0.24364 -10.4775,1.44912 -2.4555,0.50656 -4.00516,0.65977 -5.50528,0.54429 z"
       id="path10958" />
    <path
       style="fill:#000000;stroke-width:0.0846667"
       d="m 204.23184,15.239269 c 0.86653,0.06462 1.86852,0.355309 2.62405,0.761297 0.8719,0.46849 0.77806,0.533765 -0.86226,0.599801 -4.43368,0.178457 -8.03319,1.376826 -10.56486,3.517295 -0.92747,0.784138 -0.94446,0.801409 -1.6439,1.67164 -1.04831,1.304289 -1.78631,2.670072 -2.36368,4.374383 l -0.23997,0.708368 0.18813,-0.05625 c 0.57804,-0.172737 1.8953,-0.486948 2.55748,-0.610067 1.1871,-0.220718 3.89196,-0.269002 5.29562,-0.0945 1.0932,0.135868 3.20011,0.610904 3.56081,0.802829 0.35205,0.187327 0.1192,0.291576 -0.77498,0.346941 -3.35634,0.207831 -6.31831,1.428712 -8.95569,3.691445 -1.51864,1.302928 -2.99723,3.336541 -3.79465,5.21906 l -0.23338,0.550961 0.81209,-0.273239 c 0.44666,-0.150282 1.15031,-0.332971 1.56371,-0.405973 0.96736,-0.170861 2.77473,-0.17547 3.74547,-0.0098 0.82079,0.14028 2.46222,0.658725 2.64779,0.836309 0.16862,0.161367 0.0437,0.296874 -0.27465,0.29764 -0.49406,0.0012 -2.12848,0.335877 -2.9406,0.602147 -1.12318,0.368285 -2.68895,1.155854 -3.60852,1.815052 -0.43252,0.310059 -0.80928,0.563793 -0.83726,0.563861 -0.028,1.17e-4 0.0212,-0.08575 0.10934,-0.190764 0.14429,-0.171916 0.13719,-0.170429 -0.0716,0.01497 -0.23135,0.205476 -0.30695,0.317798 -0.14704,0.218424 0.0465,-0.02891 0.0817,-0.02169 0.0783,0.01601 -0.004,0.0377 -0.24771,0.278636 -0.54285,0.535464 -1.55132,1.349886 -3.10657,3.838154 -3.73645,5.977981 -0.28745,0.976563 -0.48722,2.119536 -0.56627,3.239868 -0.0409,0.57927 -0.0855,0.783368 -0.17134,0.783574 -0.0638,1.06e-4 -0.11675,-0.02832 -0.11758,-0.06322 -0.0143,-0.6093 -0.21118,-2.233141 -0.34363,-2.834324 -0.50685,-2.300861 -1.60623,-4.458339 -3.1237,-6.130104 -0.347,-0.382278 -0.61004,-0.728978 -0.58455,-0.770449 0.0255,-0.04146 -0.0387,-0.146967 -0.14253,-0.234439 l -0.18888,-0.159027 0.16174,0.190112 c 0.29566,0.347521 0.0546,0.197329 -0.69378,-0.432117 -1.97486,-1.661197 -4.39293,-2.715599 -6.94978,-3.030476 -1.2103,-0.149056 -1.10323,-0.354144 0.44456,-0.851588 2.04622,-0.657632 4.62351,-0.646755 6.67937,0.02818 0.41425,0.135997 0.77305,0.227336 0.7973,0.202978 0.0899,-0.09051 -1.10829,-2.313697 -1.66228,-3.084031 -0.31559,-0.438804 -1.00263,-1.241288 -1.52676,-1.783302 -0.52413,-0.542004 -0.93496,-1.00355 -0.91296,-1.025663 0.022,-0.02216 -0.0648,-0.132166 -0.19298,-0.244578 l -0.233,-0.204391 0.20581,0.232347 c 0.1132,0.127789 0.18356,0.23239 0.15637,0.232455 -0.0272,6.8e-5 -0.39963,-0.261512 -0.82761,-0.581295 -1.40233,-1.047819 -2.97781,-1.819363 -4.74745,-2.324918 -1.15064,-0.328711 -1.99047,-0.466296 -3.26094,-0.534229 -1.16375,-0.06221 -1.24461,-0.197454 -0.29752,-0.497568 1.89013,-0.598976 3.64527,-0.826627 5.95855,-0.772897 1.99798,0.04641 2.94392,0.192658 5.02245,0.776463 0.18109,0.05086 0.17807,0.02978 -0.11152,-0.781201 -0.62224,-1.742763 -1.61223,-3.463983 -2.64023,-4.59041 -0.27307,-0.299206 -0.49137,-0.593543 -0.48515,-0.654087 0.006,-0.06054 -0.0196,-0.09085 -0.0574,-0.06736 -0.0378,0.02349 -0.29111,-0.151833 -0.56287,-0.389621 -1.87757,-1.642921 -4.45204,-2.797168 -7.41426,-3.324133 -1.01658,-0.180842 -3.02778,-0.364487 -3.98852,-0.364212 -0.65908,5.82e-4 -0.82556,-0.02422 -0.82578,-0.120989 -7.3e-4,-0.279786 1.28751,-0.889142 2.33809,-1.105982 0.88305,-0.18225 2.6408,-0.190606 3.88222,-0.01831 0.51242,0.07107 2.34202,0.409522 4.06581,0.752148 4.67784,0.92977 5.62456,1.048359 8.8927,1.113918 l 2.37079,0.04751 0.0282,2.366449 c 0.021,1.763737 0.0548,2.383298 0.13285,2.432558 0.0576,0.03636 0.41895,0.06589 0.80311,0.06567 l 0.6985,3.25e-4 -0.006,-2.444573 -0.006,-2.444563 2.43405,-0.04944 c 3.29994,-0.06702 4.63344,-0.254757 10.474,-1.474252 2.45428,-0.51245 4.00356,-0.669377 5.50396,-0.557497 z"
       id="path10958-5" />
    <g
       id="g14739"
       transform="translate(-162.82254,-72.884698)">
      <path
         style="fill:#000000;stroke-width:0.0846667"
         d="m 191.79509,163.20302 v -5.88628 l -5.86316,-0.0217 -5.86317,-0.0217 -0.0237,-1.0795 -0.0237,-1.0795 h 5.88687 5.88686 v -5.88433 -5.88434 h 1.10067 1.10067 v 5.88434 5.88433 h 5.88686 5.88687 l -0.0237,1.0795 -0.0237,1.0795 -5.86259,0.0217 -5.86258,0.0217 -0.0218,5.86258 -0.0217,5.8626 -1.0795,0.0237 -1.0795,0.0237 z"
         id="path10772" />
      <path
         style="fill:none;stroke:#a60000;stroke-width:0.0846667;stroke-opacity:1"
         d="m 194.85994,171.83664 c 6.09518,-0.80462 11.13305,-4.96846 13.01058,-10.75336 0.59749,-1.84095 0.72738,-2.70048 0.72926,-4.826 0.002,-1.93832 -0.0522,-2.43953 -0.42491,-3.94768 -1.2584,-5.09223 -5.27359,-9.4181 -10.28376,-11.07947 -3.56079,-1.18076 -7.35089,-1.07594 -10.8182,0.29917 -0.54604,0.21656 -1.1452,0.48095 -1.33147,0.58753 -0.18626,0.10659 -0.52916,0.29916 -0.762,0.42793 -0.8924,0.49355 -2.74481,1.90383 -3.20401,2.43927 -0.0858,0.10006 -0.3368,0.37242 -0.55774,0.60525 -1.81403,1.91161 -3.24918,4.77449 -3.81986,7.62 -0.23317,1.16262 -0.31829,3.58846 -0.17052,4.85958 0.31118,2.67659 1.37855,5.32701 3.03102,7.52639 0.95716,1.27394 1.39248,1.73841 2.46454,2.62954 2.42638,2.0169 5.06948,3.18909 8.14091,3.61038 1.10761,0.15193 2.85153,0.15257 3.99616,0.001 z"
         id="path10770" />
    </g>
    <path
       style="fill:#000000;stroke-width:0.0846667"
       d="m 90.865884,112.47901 1.07935,0.0237 0.0248,23.32567 0.0249,23.32566 0.87441,-2.62466 c 1.28497,-3.857 2.13343,-6.10588 3.41794,-9.05934 1.03861,-2.38807 1.36719,-3.08748 2.54566,-5.41866 l 1.15562,-2.286 0.0423,-12.14967 0.0423,-12.14967 h 1.05833 1.05833 l 0.0423,10.17645 0.0423,10.17643 0.41584,-0.65143 c 0.22872,-0.3583 0.60882,-0.95625 0.84468,-1.32878 0.23586,-0.37253 0.53562,-0.82973 0.66614,-1.016 1.52457,-2.17585 2.27247,-3.22012 2.92626,-4.08593 l 0.77741,-1.02949 v -8.68179 -8.68179 h 1.10067 1.10067 l 0.003,7.34483 0.003,7.34484 0.21998,-0.254 c 1.03727,-1.19774 1.60657,-1.81833 1.66887,-1.81924 0.0406,-8.5e-4 0.0234,0.0656 -0.0382,0.14707 -0.0965,0.12748 -0.0951,0.13294 0.01,0.0391 0.0671,-0.06 0.12238,-0.16297 0.12292,-0.22884 0.001,-0.14599 2.32788,-2.50929 2.41649,-2.45452 0.0346,0.0214 0.11491,-0.0273 0.1784,-0.10832 0.10445,-0.13324 0.10133,-0.13618 -0.0327,-0.031 -0.0815,0.0639 -0.14817,0.0899 -0.14817,0.0578 0,-0.0321 0.36195,-0.40402 0.80433,-0.82638 l 0.80434,-0.76792 v -5.19786 -5.19786 l 1.0795,0.0237 1.0795,0.0237 0.0423,4.17368 0.0423,4.17367 0.46567,-0.41341 c 2.08233,-1.84865 6.92702,-5.38438 9.70705,-7.08436 2.69712,-1.64928 5.93096,-3.41566 8.39292,-4.58434 l 1.3783,-0.65427 -0.57396,-0.33301 c -1.29754,-0.7528 -3.04197,-1.35689 -4.74983,-1.64485 -0.70703,-0.11921 -1.37485,-0.15243 -3.06315,-0.15237 -2.87557,8e-5 -4.65052,0.2244 -9.398,1.18773 -1.46685,0.29764 -4.05765,0.8242 -5.75733,1.17011 -4.71204,0.95901 -7.57411,1.41098 -11.06854,1.74795 -1.94749,0.1878 -6.280126,0.39282 -6.501996,0.30768 -0.13531,-0.0519 -0.14251,-0.17806 -0.0888,-1.55769 0.3024,-7.77515 1.97831,-14.36611 5.397876,-21.22851 0.37127,-0.74507 0.71024,-1.39087 0.75327,-1.4351 0.043,-0.0442 0.0782,-0.11092 0.0782,-0.14817 0,-0.0373 -5.614416,-0.0677 -12.476496,-0.0677 H 78.379977 l 0.8609,1.7145 c 3.34687,6.66531 5.12489,13.64306 5.35346,21.00943 l 0.0549,1.76895 -1.72829,-0.0587 c -5.25339,-0.17843 -9.88232,-0.78371 -16.5873,-2.16891 -10.185901,-2.10434 -11.730041,-2.33513 -15.113001,-2.25881 -2.8507,0.0643 -4.69594,0.49485 -6.814749,1.59001 l -1.00578,0.51986 2.513259,1.25632 c 4.90895,2.45388 9.5515,5.29503 13.204661,8.08102 0.77594,0.59175 3.17306,2.50618 3.74427,2.99033 l 0.55034,0.46645 0.022,-4.20742 0.022,-4.20741 1.07872,0.0237 1.0787,0.0237 0.0218,5.17789 0.0218,5.17788 1.80275,1.80712 c 0.99151,0.99391 2.10858,2.15001 2.48236,2.56911 0.3738,0.4191 0.89556,0.99957 1.15947,1.28992 l 0.47985,0.52792 0.0216,-7.30125 0.0216,-7.30126 1.0795,-0.0237 1.0795,-0.0237 v 8.66853 8.66852 l 1.16417,1.56409 c 1.61549,2.17046 2.61432,3.616 3.87813,5.61256 l 0.58804,0.92897 0.0423,-10.15764 0.0423,-10.15764 h 1.05834 1.05833 l 0.0423,12.14967 0.0423,12.14967 0.68935,1.31233 c 1.73296,3.29906 3.58542,7.46038 4.95628,11.13367 0.763,2.04449 2.30986,6.64241 2.37638,7.0636 0.0116,0.0732 0.0307,-10.4313 0.0425,-23.3433 l 0.0215,-23.47636 1.079347,0.0237 z"
       id="path10144" />
    <path
       style="fill:#000000;stroke-width:0.0846667"
       d="m 149.62522,56.616044 c 0,-2.04985 -0.58452,-4.85084 -1.45955,-6.99397 -1.16336,-2.84936 -3.20573,-5.64085 -5.48312,-7.49426 -0.25612,-0.20844 -0.52282,-0.43362 -0.59267,-0.50041 -0.0698,-0.0668 -0.5842,-0.42487 -1.143,-0.79574 -1.83364,-1.21698 -4.10081,-2.19762 -6.26533,-2.71001 -0.7921,-0.1875 -2.65189,-0.47991 -3.05234,-0.47991 -0.28852,0 -0.0959,-0.27514 0.32183,-0.45973 1.20585,-0.53282 2.97974,-0.97826 4.5975,-1.15448 2.29763,-0.25027 5.3038,0.18764 7.27621,1.05993 l 0.45089,0.19941 -0.42068,-0.94414 c -1.19426,-2.68029 -2.54447,-4.64578 -4.6034,-6.70117 -3.6648,-3.6585 -8.69304,-5.86237 -13.94887,-6.11377 -0.91747,-0.0439 -1.08089,-0.0722 -1.05949,-0.1833 0.0282,-0.1464 0.73099,-0.3868 2.26801,-0.7758 4.30205,-1.08879 9.21027,-0.99107 13.61297,0.27103 0.48415,0.13879 0.89485,0.23776 0.91268,0.21994 0.0388,-0.0388 -0.61975,-1.92912 -0.92233,-2.64759 -2.56568,-6.09193 -7.47829,-9.91238 -14.69157,-11.4254003 -1.57144,-0.32962 -3.38442,-0.54071 -5.62159,-0.65454 -1.98041,-0.10076 -2.22486,-0.14999 -1.86266,-0.37506 1.05481,-0.65548 2.3199,-1.13818 3.49339,-1.33291 2.37363,-0.3939 4.44918,-0.2228 9.20877,0.75913 8.23825,1.69959 10.05964,1.94232 15.28018,2.03635 l 3.02683,0.0545 v 2.5267903 2.52679 h 0.84667 0.84667 v -2.52697 -2.5269703 l 2.9845,-0.0517 c 4.61067,-0.0799 7.06035,-0.36425 12.2555,-1.42251 6.20672,-1.26433 6.82268,-1.37124 8.77951,-1.52384 2.37367,-0.18509 4.3224,0.13786 6.03715,1.00052 1.37883,0.69366 1.35517,0.74821 -0.35593,0.8207 -6.18589,0.26207 -10.62499,1.48418 -14.2348,3.9189203 -0.50439,0.3402 -0.93768,0.61854 -0.96287,0.61854 -0.0252,0 0.007,-0.0667 0.0704,-0.14816 0.10515,-0.13408 0.1022,-0.1372 -0.031,-0.0327 -0.081,0.0635 -0.13018,0.14303 -0.10931,0.17677 0.0208,0.0337 -0.2939,0.3507 -0.69944,0.70435 -2.1634,1.88656 -3.73888,4.09709 -4.93048,6.91788 -0.48664,1.15198 -0.95958,2.53975 -0.88943,2.60989 0.0197,0.0198 0.2951,-0.0422 0.6119,-0.13761 4.50572,-1.35728 9.3425,-1.4791 13.89723,-0.35002 1.54199,0.38225 2.25336,0.6222 2.28175,0.76968 0.0214,0.11117 -0.14186,0.13955 -1.05783,0.18388 -4.15129,0.2009 -8.46073,1.71591 -11.60576,4.08007 -0.53344,0.40099 -0.70973,0.48072 -0.51559,0.23318 0.10442,-0.13315 0.10169,-0.13681 -0.0269,-0.0361 -0.0787,0.0616 -0.12735,0.15686 -0.10806,0.21167 0.0193,0.0548 -0.13429,0.22708 -0.34129,0.38284 -1.04225,0.78428 -2.48903,2.31605 -3.65066,3.86512 -0.95418,1.27243 -2.2742,3.6826 -2.61078,4.7669 l -0.0604,0.19456 0.32449,-0.14304 c 0.65138,-0.28714 2.21115,-0.72587 3.16083,-0.88907 2.74929,-0.47245 5.52648,-0.21399 8.12736,0.75638 1.44309,0.5384 1.43736,0.61613 -0.0598,0.8094 -6.98599,0.90187 -12.87002,5.40865 -15.54211,11.90421 -0.847,2.059 -1.4155,4.77796 -1.4155,6.77 0,0.62423 -0.014,0.68067 -0.16933,0.68067 -0.15018,0 -0.16933,-0.0564 -0.16933,-0.49903 z"
       id="path12918-1" />
  </g>
</svg>
