<?xml version="1.0" encoding="UTF-8" standalone="no"?>
<!-- Created with Inkscape (http://www.inkscape.org/) -->

<svg
   width="210mm"
   height="297mm"
   viewBox="0 0 210 297"
   version="1.1"
   id="svg6508"
   inkscape:version="1.2.2 (732a01da63, 2022-12-09)"
   sodipodi:docname="baumtest.svg"
   xmlns:inkscape="http://www.inkscape.org/namespaces/inkscape"
   xmlns:sodipodi="http://sodipodi.sourceforge.net/DTD/sodipodi-0.dtd"
   xmlns="http://www.w3.org/2000/svg"
   xmlns:svg="http://www.w3.org/2000/svg">
  <sodipodi:namedview
     id="namedview6510"
     pagecolor="#ffffff"
     bordercolor="#666666"
     borderopacity="1.0"
     inkscape:pageshadow="2"
     inkscape:pageopacity="0.0"
     inkscape:pagecheckerboard="0"
     inkscape:document-units="mm"
     showgrid="false"
     inkscape:zoom="0.80087685"
     inkscape:cx="388.32437"
     inkscape:cy="334.63322"
     inkscape:window-width="1090"
     inkscape:window-height="841"
     inkscape:window-x="-8"
     inkscape:window-y="-8"
     inkscape:window-maximized="1"
     inkscape:current-layer="layer1"
     inkscape:showpageshadow="2"
     inkscape:deskcolor="#d1d1d1" />
  <defs
     id="defs6505" />
  <g
     inkscape:label="Ebene 1"
     inkscape:groupmode="layer"
     id="layer1">
    <path
       id="path12918"
       style="fill:#000000;stroke-width:0.0846667"
       d="M 127.33435 29.448848 C 127.17906 29.443607 127.16361 29.499884 127.14211 30.123743 C 127.07491 32.114648 126.41477 34.812941 125.4988 36.842196 C 122.60913 43.243911 116.57629 47.549446 109.56385 48.215145 C 108.06101 48.357801 108.05294 48.435558 109.47704 49.022331 C 112.04371 50.079886 114.81056 50.431683 117.57422 50.052242 C 118.52887 49.921171 120.10247 49.535382 120.76317 49.270378 L 121.09235 49.138086 L 121.02569 49.330839 C 120.65273 50.403167 119.25187 52.767522 118.25531 54.007039 C 117.0421 55.516042 115.54433 56.997671 114.47622 57.746346 C 114.26408 57.895035 114.10483 58.06248 114.12223 58.1179 C 114.13967 58.17333 114.08831 58.266729 114.00751 58.325639 C 113.87557 58.421951 113.87282 58.417984 113.98167 58.288432 C 114.18405 58.047582 114.00485 58.121672 113.45819 58.504439 C 110.2352 60.761162 105.87715 62.129769 101.72144 62.190519 C 100.80449 62.203925 100.64034 62.227004 100.65794 62.338831 C 100.68134 62.487184 101.38437 62.750726 102.91258 63.184774 C 107.42664 64.466852 112.26511 64.508146 116.81406 63.30363 C 117.13389 63.218959 117.41104 63.166381 117.43004 63.186841 C 117.49778 63.259308 116.97806 64.630587 116.45284 65.765495 C 115.16676 68.544481 113.51772 70.70038 111.29191 72.512887 C 110.87468 72.852659 110.54926 73.159035 110.56896 73.193465 C 110.58867 73.227888 110.53734 73.305315 110.45424 73.366064 C 110.31757 73.466036 110.31466 73.462932 110.42427 73.332475 C 110.49067 73.253186 110.52492 73.187595 110.49972 73.186747 C 110.47455 73.18589 110.03189 73.449758 109.51631 73.772758 C 105.82643 76.084342 101.3487 77.155981 95.157499 77.209241 C 93.444933 77.223961 93.419418 77.277682 94.77406 78.01746 C 96.458726 78.93747 98.395659 79.325916 100.77421 79.221004 C 102.73507 79.1345 103.3542 79.048441 109.60003 77.994206 C 114.82792 77.111792 117.2857 76.910289 121.89644 76.985999 L 123.96969 77.020105 L 123.96969 71.663843 L 127.76998 71.663843 L 127.76998 77.15343 L 129.59674 77.247998 C 134.81114 77.518074 136.62322 77.822224 144.79943 79.798747 C 149.52319 80.94067 151.59161 81.182055 153.97716 80.868449 C 155.15655 80.713415 156.43758 80.273579 157.5139 79.654053 C 157.88348 79.441325 157.64081 79.383825 155.66492 79.216353 C 153.43287 79.027122 151.62779 78.754919 150.06836 78.372477 C 142.91023 76.616994 138.12924 72.632964 135.77052 66.457959 C 135.49235 65.729692 134.89792 63.818073 134.93802 63.780603 C 134.95644 63.763395 135.36368 63.876191 135.84287 64.031234 C 140.20049 65.441127 145.1026 65.704471 149.43894 64.761422 C 150.9882 64.424491 151.69862 64.20812 151.73182 64.062756 C 151.75695 63.952439 151.59464 63.918468 150.67917 63.843648 C 145.43482 63.415101 140.48391 61.042692 136.94461 57.262655 C 134.95618 55.138984 133.67285 53.129407 132.56969 50.41036 L 132.18108 49.452279 L 132.62498 49.666736 C 134.56684 50.605063 137.55647 51.144189 139.86123 50.971566 C 141.48402 50.850018 143.27192 50.465017 144.49506 49.973177 C 144.9187 49.802782 145.12086 49.533809 144.8325 49.524109 C 144.43229 49.510602 142.58337 49.155828 141.79806 48.941715 C 139.65206 48.356603 137.41893 47.300137 135.62738 46.021997 C 135.08141 45.632488 134.5797 45.257049 134.5122 45.187939 C 134.44464 45.118832 134.18548 44.885035 133.93653 44.668075 C 131.72297 42.738898 129.77604 39.880065 128.70946 36.993091 C 127.90722 34.821666 127.41799 32.002419 127.48679 29.953727 C 127.50172 29.51135 127.48444 29.453948 127.33435 29.448848 z " />
    <path
       id="path12330"
       style="fill:#000000;stroke-width:0.0846667"
       d="M 43.789575 3.8431763 C 43.651015 3.8431763 43.626677 3.990503 43.536877 5.3883016 C 43.416538 7.2618897 43.200859 8.6270084 42.752429 10.354407 C 41.66464 14.544693 39.431462 18.48012 36.385893 21.573877 C 35.332424 22.644016 34.997701 23.015037 35.348747 22.723678 C 35.547877 22.558408 35.497322 22.678373 35.291903 22.858553 C 35.190797 22.947253 35.135946 22.972564 35.169946 22.914364 C 35.296352 22.698174 35.097502 22.823326 34.427873 23.382035 C 32.998594 24.574594 31.781222 25.382381 29.845723 26.42216 C 27.520826 27.671129 23.648604 28.807376 20.955827 29.030786 C 19.743098 29.131406 19.684431 29.244853 20.63905 29.644702 C 22.271219 30.328331 24.136729 30.830773 25.948287 31.075623 C 27.064246 31.226442 29.694434 31.244782 30.776933 31.109212 C 32.568621 30.884812 34.549071 30.377836 36.049996 29.758907 L 36.63704 29.516545 L 36.187972 30.56971 C 34.767817 33.900387 32.794887 36.83089 30.28549 39.336617 C 29.87539 39.746107 29.560391 40.114589 29.585791 40.155688 C 29.611201 40.196798 29.566022 40.282358 29.485022 40.345858 C 29.351822 40.450348 29.348866 40.447381 29.454016 40.313302 C 29.646176 40.068282 29.4427 40.147779 29.125871 40.441459 C 28.012792 41.473258 26.075995 42.890877 24.638806 43.725496 C 20.73233 45.994094 16.383811 47.261356 11.705745 47.494775 C 10.211517 47.569335 10.14428 47.668035 11.337809 48.036344 C 16.982774 49.778313 22.762793 50.094129 28.366227 48.96652 C 29.494716 48.73942 31.785467 48.150182 32.298287 47.955212 C 32.416117 47.910712 32.512744 47.886152 32.512744 47.900952 C 32.512744 47.915782 32.364882 48.381572 32.184082 48.936031 C 31.035623 52.457828 29.216083 55.785824 27.157515 58.130302 C 26.605226 58.759431 26.406773 59.064955 26.755473 58.749386 C 26.848603 58.665136 26.924455 58.614331 26.924455 58.636731 C 26.924455 58.659121 26.823065 58.769821 26.699146 58.882711 C 26.575216 58.995611 26.501314 59.040646 26.534814 58.982446 C 26.633964 58.810366 26.53667 58.859984 26.249561 59.128174 C 26.101431 59.266584 26.002085 59.414753 26.028385 59.457353 C 26.054785 59.499853 26.023756 59.528982 25.959656 59.522982 C 25.895526 59.516602 25.619753 59.724213 25.346773 59.984452 C 23.415755 61.8254 20.599169 63.571835 17.738452 64.701994 C 13.750386 66.277512 9.4160158 67.098235 4.3790609 67.231555 C 3.270092 67.260905 2.3428209 67.32088 2.3156209 67.36488 C 2.233911 67.49709 2.539721 67.729138 3.3873901 68.178267 C 4.6927088 68.869897 6.3224705 69.351629 8.0015788 69.542008 C 9.0482577 69.660688 11.722328 69.577451 13.245186 69.378711 C 15.031455 69.145591 15.986267 68.97357 19.423104 68.265601 C 25.832697 66.945282 27.787753 66.588372 30.48031 66.248153 C 33.459727 65.871683 34.586728 65.805394 38.799182 65.759294 L 41.708565 65.727771 L 41.708565 56.335063 L 45.508333 56.335063 L 45.508333 65.704 L 48.641475 65.744307 C 52.768221 65.797517 54.20891 65.88379 57.065767 66.247119 C 59.758375 66.589549 61.566062 66.923716 69.130664 68.477474 C 70.155133 68.687894 71.55551 68.956397 72.242619 69.074337 C 77.677783 70.007246 81.151181 69.743567 84.179358 68.168449 C 85.013417 67.734619 85.315589 67.501776 85.228389 67.360746 C 85.20207 67.318136 84.29359 67.261339 83.209391 67.234139 C 77.215607 67.083979 71.990043 65.918591 67.718347 63.779053 C 66.362739 63.100073 65.134804 62.359058 64.177995 61.642749 C 60.574038 58.944642 58.056107 55.694777 56.262199 51.425802 C 55.833399 50.405373 55.03385 48.144045 55.03385 47.951595 C 55.03385 47.910795 55.187692 47.931387 55.375431 47.997587 C 55.563181 48.063827 56.201173 48.250242 56.793433 48.412032 C 61.851518 49.793771 67.165494 49.996176 72.348039 49.003727 C 74.288307 48.632178 76.962744 47.858011 76.962744 47.667891 C 76.962744 47.584262 76.682558 47.541793 75.840849 47.498393 C 69.372645 47.164553 63.542972 44.893003 58.880127 40.888977 C 57.924868 40.068678 56.0012 38.107684 55.45708 37.399784 C 55.34065 37.248334 55.015623 36.827411 54.734644 36.464441 C 53.276385 34.580693 52.03154 32.364643 51.052181 29.909285 L 50.895601 29.517061 L 51.548275 29.792497 C 55.352761 31.397025 60.38389 31.659337 64.519576 30.469458 C 65.772135 30.109088 67.564351 29.407523 67.564351 29.277283 C 67.564351 29.145053 67.366034 29.073678 66.996944 29.073678 C 66.355295 29.073678 64.157931 28.702874 62.911922 28.384314 C 61.218374 27.951324 59.642277 27.362763 57.955119 26.533264 C 56.075981 25.609375 54.935056 24.875921 53.116138 23.422343 C 52.598538 23.008703 52.458363 22.959399 52.754403 23.295219 L 52.959558 23.52828 L 52.732699 23.328292 C 52.608019 23.218552 52.519195 23.085386 52.535295 23.032186 C 52.570465 22.915716 51.668712 22.107756 51.571012 22.168156 C 51.533352 22.191446 51.411261 22.107857 51.299711 21.982638 C 51.188211 21.857418 51.163434 21.806449 51.244934 21.868949 C 51.559044 22.109869 51.372696 21.810279 50.958647 21.409029 C 48.860919 19.376081 46.644052 15.829774 45.471643 12.631787 C 44.540884 10.09293 43.942537 6.9472151 43.942537 4.5904175 C 43.942537 3.9258281 43.925785 3.8431763 43.789575 3.8431763 z " />
    <path
       id="path12330-8"
       style="fill:#000000;stroke-width:0.0846667"
       d="M 125.70292 13.701489 C 124.4378 13.715659 122.65056 13.844457 121.51248 14.021883 C 119.73256 14.299375 118.78217 14.49521 115.36402 15.288472 C 108.98925 16.76786 107.04381 17.173214 104.36056 17.580322 C 101.39143 18.030806 100.26667 18.124991 96.056669 18.275887 L 93.411869 18.370455 L 93.411869 27.908374 L 89.611584 27.908374 L 89.611584 18.494995 L 86.217476 18.535819 C 82.090684 18.585303 80.648378 18.53495 77.783366 18.242814 C 75.083072 17.967485 73.267712 17.678279 65.666793 16.313216 C 64.637405 16.128351 63.230717 15.894676 62.540885 15.793868 C 57.084192 14.996481 53.61855 15.346404 50.630501 16.996379 C 49.807494 17.450826 49.510944 17.691103 49.601624 17.829919 C 49.628996 17.871859 50.538666 17.906185 51.623206 17.906401 C 57.618871 17.907383 62.871775 18.942873 67.195382 20.975464 C 68.567464 21.620504 69.813591 22.330604 70.787927 23.022884 C 74.4579 25.630487 77.055812 28.816325 78.955387 33.039327 C 79.409444 34.048768 80.265236 36.289621 80.270036 36.482011 C 80.271051 36.522811 80.11675 36.505787 79.927421 36.444287 C 79.738081 36.382737 79.095703 36.211982 78.499601 36.064982 C 73.408703 34.809523 68.090908 34.739771 62.93466 35.86086 C 61.004237 36.28058 58.350394 37.121358 58.355094 37.311418 C 58.357175 37.394988 58.638596 37.430094 59.481124 37.452494 C 65.955631 37.625294 71.839466 39.751387 76.600492 43.638163 C 77.575865 44.434432 79.547758 46.346907 80.109322 47.041056 C 80.229484 47.189556 80.565089 47.601927 80.855013 47.957796 C 82.35969 49.804674 83.659592 51.98919 84.69974 54.419417 L 84.865621 54.808024 L 84.206746 54.549125 C 80.363515 53.039747 75.326809 52.902216 71.222009 54.194625 C 69.978805 54.586054 68.204523 55.332565 68.207723 55.462764 C 68.211013 55.594914 68.411322 55.6609 68.780298 55.6519 C 69.421748 55.63594 71.627791 55.952002 72.88134 56.239461 C 74.585137 56.630181 76.17531 57.179218 77.882585 57.966488 C 79.784129 58.843337 80.943009 59.548101 82.79753 60.955969 C 83.325262 61.356609 83.466669 61.402141 83.162366 61.073792 L 82.951526 60.846415 L 83.183036 61.040202 C 83.310409 61.146812 83.402445 61.278057 83.387675 61.331657 C 83.355413 61.448957 84.276975 62.234199 84.373145 62.171399 C 84.410213 62.147179 84.534466 62.227273 84.649097 62.349683 C 84.763677 62.472302 84.789487 62.522837 84.706458 62.462337 C 84.386451 62.229307 84.580209 62.523686 85.004114 62.914506 C 87.151774 64.894634 89.456543 68.384912 90.708158 71.552738 C 91.701798 74.067646 92.378095 77.197733 92.436735 79.5538 C 92.453271 80.21815 92.472133 80.299908 92.608301 80.296908 C 92.746818 80.293458 92.767251 80.145696 92.822241 78.746098 C 92.895926 76.87009 93.077354 75.499924 93.482666 73.761906 C 94.465859 69.54585 96.600433 65.555983 99.568083 62.387406 C 100.59462 61.291418 100.92049 60.912285 100.57681 61.212284 C 100.38183 61.382464 100.42915 61.261098 100.63003 61.075859 C 100.72891 60.984659 100.78294 60.958464 100.75044 61.017464 C 100.62945 61.236734 100.82511 61.106378 101.48063 60.531189 C 102.8798 59.30343 104.07727 58.465512 105.9863 57.377893 C 108.27939 56.071464 112.12211 54.838948 114.8085 54.548608 C 116.01834 54.417849 116.07404 54.303427 115.10977 53.927458 C 113.4611 53.284648 111.58403 52.828529 109.76694 52.628829 C 108.64757 52.505859 106.01709 52.553176 104.9383 52.715645 C 103.15275 52.984555 101.18543 53.540613 99.700374 54.196692 L 99.120048 54.453524 L 99.542761 53.389506 C 100.8796 50.024529 102.77882 47.045809 105.2251 44.478422 C 105.62488 44.058852 105.93053 43.682797 105.90413 43.642297 C 105.87773 43.601837 105.92085 43.515044 106.00025 43.449544 C 106.13085 43.341754 106.13407 43.344924 106.03229 43.481584 C 105.84628 43.731303 106.04739 43.646628 106.35682 43.345158 C 107.44387 42.285979 109.34522 40.820662 110.7612 39.950533 C 114.61002 37.585445 118.92527 36.2106 123.59607 35.86086 C 125.08798 35.74914 125.1529 35.648489 123.95057 35.309989 C 118.26402 33.709011 112.47771 33.536882 106.90407 34.80356 C 105.78158 35.05867 103.50617 35.704867 102.99836 35.912537 C 102.88165 35.959937 102.78583 35.987281 102.78546 35.972481 C 102.78509 35.957661 102.92133 35.487924 103.08828 34.929134 C 104.14876 31.379855 105.88477 28.007878 107.88437 25.612907 C 108.42083 24.970233 108.61217 24.659857 108.27143 24.984005 C 108.18045 25.070543 108.10507 25.123183 108.10451 25.100793 C 108.10395 25.07841 108.20255 24.965068 108.32362 24.849129 C 108.44473 24.733181 108.51788 24.686756 108.48588 24.745776 C 108.39104 24.92027 108.48665 24.868064 108.767 24.592814 C 108.91167 24.450761 109.00773 24.300398 108.98043 24.258468 C 108.95293 24.216638 108.98341 24.186371 109.04761 24.190771 C 109.11188 24.195553 109.38218 23.981266 109.6486 23.714315 C 111.53322 21.825891 114.30532 20.009658 117.13704 18.808671 C 121.08466 17.134414 125.39716 16.206467 130.42925 15.947864 C 131.53714 15.89093 132.46297 15.807522 132.48907 15.762862 C 132.56747 15.62866 132.25573 15.404246 131.39715 14.976347 C 130.07503 14.317409 128.43373 13.876387 126.7504 13.727844 C 126.48808 13.704694 126.12463 13.696766 125.70292 13.701489 z " />
    <path
       id="path11950"
       style="fill:#000000;stroke-width:0.0846667"
       d="M 158.79806 70.936755 L 158.86472 72.25037 C 158.64008 77.58429 158.12271 82.907872 155.205 87.254622 C 154.48074 88.33361 153.97527 89.038577 153.70173 89.351135 C 153.59917 89.468315 153.26075 89.868725 152.94984 90.241003 C 151.91374 91.481621 149.91122 93.36106 148.47776 94.437646 C 144.76374 97.227022 140.48825 99.105149 136.0103 99.914315 C 135.13944 100.07167 134.7618 100.1741 134.7618 100.2528 C 134.7618 100.59859 138.44664 101.81991 140.56145 102.17516 C 142.55325 102.50976 145.37903 102.5814 147.283 102.34569 C 149.2805 102.09839 151.48061 101.54182 153.11313 100.87033 C 153.54387 100.69319 153.89655 100.56921 153.89655 100.59541 C 153.89655 100.62159 153.73937 101.02678 153.54722 101.49561 C 152.27679 104.59536 150.51815 107.48594 148.33048 110.07132 C 147.83952 110.65154 147.74349 110.85513 148.13928 110.47594 C 148.27898 110.34206 148.39301 110.25151 148.39301 110.27441 C 148.39301 110.29727 148.25395 110.44724 148.08398 110.60772 C 147.91397 110.76816 147.8019 110.85195 147.8349 110.79375 C 147.9623 110.5692 147.79496 110.71715 146.98638 111.5441 C 141.10429 117.55986 133.55762 120.92961 125.08849 121.32231 C 124.14369 121.36612 123.83947 121.40729 123.83947 121.49129 C 123.83947 121.69145 126.77714 122.53504 129.08928 122.99869 C 135.34539 124.25323 142.4494 123.86864 148.40386 121.9538 L 149.16506 121.70885 L 149.10769 121.97705 C 149.00006 122.47709 148.25163 124.6106 147.8008 125.70292 C 146.41669 129.05651 144.4116 132.17942 142.15515 134.49618 C 141.7583 134.90364 141.54379 135.18654 141.58309 135.25014 C 141.62329 135.31504 141.61012 135.32955 141.54692 135.29045 C 141.48768 135.25383 141.23585 135.43025 140.92008 135.72918 C 138.45994 138.05811 134.81541 140.23293 131.16357 141.55105 C 126.67361 143.17167 120.90966 144.1299 115.65341 144.13074 C 114.24043 144.1309 114.07311 144.1886 114.49172 144.52916 C 114.8526 144.82275 116.83186 145.77541 117.61608 146.03295 C 119.45443 146.6367 121.94909 146.90266 124.39706 146.7559 C 127.0948 146.59417 129.07146 146.28418 134.14943 145.22628 C 144.36877 143.09728 148.36136 142.51335 153.62783 142.37891 L 155.68765 142.32671 L 155.64011 143.2078 C 155.61391 143.6924 155.57049 144.54604 155.54399 145.10484 C 155.22059 151.91337 152.99121 159.74915 149.64203 165.84983 C 149.4369 166.22345 149.28496 166.57636 149.30406 166.63376 L 149.30406 166.63427 C 149.33128 166.71604 150.63928 166.73396 155.32179 166.71696 L 160.25275 166.69887 L 160.25275 135.63151 L 163.99051 135.63151 L 163.99051 166.73763 L 168.96695 166.73763 C 174.12082 166.73763 174.97847 166.72041 174.97847 166.6167 C 174.97847 166.55016 174.61835 165.7976 174.17852 164.94445 C 170.78171 158.35542 169.00213 151.47389 168.66671 143.63154 L 168.6109 142.32723 L 170.67279 142.37994 C 175.15239 142.49429 179.65769 143.08344 186.06978 144.39377 C 193.39374 145.89043 194.40724 146.09032 195.70382 146.29288 C 201.58567 147.21176 205.3966 146.87716 208.75005 145.14721 C 209.69072 144.66193 210.08418 144.37242 209.99648 144.23047 C 209.95438 144.16237 209.53703 144.13177 208.64928 144.13177 C 205.44341 144.13142 201.17059 143.66884 198.0923 142.9892 C 193.61409 142.00048 189.71441 140.38964 186.45063 138.18071 C 186.03155 137.89706 185.66985 137.64181 185.64655 137.61331 C 185.62327 137.5848 185.29976 137.33482 184.92825 137.05778 C 184.33315 136.61401 183.05847 135.48177 182.67309 135.05481 C 182.52084 134.88607 182.385 134.84801 182.4793 135.00055 C 182.5159 135.05975 182.50261 135.07554 182.44571 135.04034 C 182.39401 135.00837 182.37559 134.91985 182.40489 134.84345 C 182.44541 134.73775 182.42351 134.71765 182.31239 134.76025 C 182.232 134.79115 182.18693 134.78306 182.21213 134.74216 C 182.23738 134.70131 182.01881 134.40641 181.72638 134.08691 C 179.13062 131.2508 176.82379 127.16854 175.53606 123.13254 C 175.36549 122.59798 175.19227 122.0584 175.15107 121.93364 L 175.07614 121.7073 L 175.47146 121.83081 C 178.22079 122.69168 181.09535 123.28897 183.86836 123.5754 C 185.2799 123.72098 190.02207 123.71979 191.36145 123.57334 C 194.42492 123.23837 197.26927 122.64507 199.80693 121.81169 C 200.79968 121.48566 200.68479 121.39103 199.2142 121.32283 C 193.96605 121.07948 189.35399 119.79594 184.87554 117.33289 C 182.67292 116.12151 180.75034 114.74638 178.75136 112.9528 C 178.29725 112.54533 177.89636 112.23038 177.86046 112.25258 C 177.82456 112.27477 177.72337 112.20795 177.63567 112.10427 L 177.47599 111.91565 L 177.67908 112.08515 C 178.09747 112.43439 177.78551 112.03672 176.90858 111.10278 C 174.42389 108.45659 172.36416 105.2918 170.92083 101.90282 C 170.63795 101.23861 170.40614 100.65828 170.40614 100.61298 C 170.40614 100.56764 170.62517 100.62876 170.89293 100.74941 C 172.15725 101.31906 174.62557 102.00665 176.37528 102.27644 C 177.83811 102.50162 181.69615 102.50064 183.14851 102.27438 C 185.5811 101.89543 189.54089 100.64166 189.54089 100.25021 C 189.54089 100.16845 189.22546 100.08012 188.46136 99.947904 C 184.15546 99.202848 179.95503 97.434225 176.37373 94.858809 C 175.36158 94.130941 174.30861 93.261718 173.56873 92.543188 C 173.17339 92.15925 172.92675 91.978257 172.85715 92.021257 C 172.78645 92.064955 172.77226 92.052983 172.81426 91.985083 C 172.854 91.920803 172.61501 91.609433 172.17089 91.146375 C 167.26444 86.030825 165.80791 79.45535 165.68859 72.110844 L 165.66999 70.978097 L 164.22512 70.949158 L 164.22512 73.059106 L 160.42535 73.059106 L 160.42535 70.936755 L 158.79806 70.936755 z " />
    <path
       id="path11352"
       style="fill:#000000;stroke-width:0.0846667"
       d="M 61.555933 69.196293 C 61.442653 69.172983 61.362216 69.410166 58.903898 76.988066 L 58.169059 79.253044 L 52.836568 79.253044 C 47.915273 79.253044 47.506682 79.263974 47.531982 79.393604 C 47.547032 79.470853 49.372121 80.851878 51.587549 82.462667 C 53.802967 84.073455 55.716186 85.467569 55.839486 85.560669 L 56.063761 85.730168 L 54.457141 90.681287 C 53.573622 93.404324 52.851038 95.703002 52.851038 95.789502 L 52.851554 95.789502 C 52.851554 95.875932 52.894122 95.932376 52.946122 95.915076 C 52.998102 95.897746 54.769585 94.627924 56.882833 93.093026 L 59.713668 91.03682 L 59.713668 88.512427 L 60.724976 88.512427 L 60.724976 88.481938 L 61.526477 88.481938 L 62.327979 88.481938 L 62.329012 88.512427 L 63.513436 88.512427 L 63.513436 91.127254 L 66.186141 93.071322 C 69.536798 95.508339 70.29235 96.009636 70.29235 95.795186 C 70.29235 95.766196 69.567111 93.511397 68.680562 90.784639 C 67.794003 88.057872 67.084531 85.784651 67.104431 85.732751 C 67.124331 85.680872 69.050356 84.250066 71.384273 82.553617 C 73.718181 80.857169 75.614903 79.430035 75.599003 79.382235 C 75.579803 79.324555 73.776605 79.281144 70.247909 79.253044 L 64.925753 79.210669 L 64.482886 77.85623 C 64.239366 77.11116 63.507184 74.863027 62.855595 72.860669 C 62.127086 70.621934 61.626533 69.210793 61.555933 69.196293 z " />
    <path
       id="path10958"
       style="fill:#000000;stroke-width:0.0846667"
       d="M 169.74261 33.933329 C 169.65679 33.933329 169.61179 34.137575 169.56949 34.716744 C 169.48776 35.836883 169.28516 36.979437 168.99537 37.955306 C 168.36036 40.093614 166.79925 42.578292 165.24469 43.924451 C 164.94893 44.18057 164.70454 44.420568 164.70054 44.458268 C 164.69704 44.495968 164.73197 44.503605 164.77857 44.474805 C 164.93873 44.375815 164.86313 44.487959 164.63129 44.692879 C 164.42209 44.877779 164.41475 44.878918 164.55946 44.707349 C 164.64786 44.602549 164.69754 44.517179 164.66954 44.517179 C 164.64156 44.517179 164.26409 44.769882 163.83083 45.078902 C 162.90969 45.735892 161.34167 46.519404 160.21761 46.884993 C 159.40486 47.149313 157.76972 47.480306 157.27567 47.480306 C 156.9574 47.480306 156.83201 47.615676 157.00024 47.777445 C 157.18539 47.955475 158.82562 48.477521 159.64607 48.619771 C 160.61641 48.787741 162.42381 48.787794 163.39158 48.619255 C 163.80515 48.547245 164.50932 48.365905 164.95634 48.216695 L 165.76921 47.945394 L 165.5346 48.495748 C 164.73267 50.376346 163.24884 52.406487 161.72708 53.705766 C 159.08428 55.962164 156.1196 57.176066 152.76277 57.375826 C 151.86846 57.429046 151.63551 57.532855 151.98711 57.721025 C 152.34734 57.913814 154.45318 58.393855 155.54606 58.532345 C 156.94929 58.710204 159.65424 58.668566 160.84186 58.450696 C 161.50434 58.329166 162.82191 58.017948 163.40036 57.846598 L 163.58898 57.790788 L 163.34714 58.498755 C 162.76568 60.201673 162.02456 61.565712 160.97312 62.86748 C 160.27159 63.73603 160.25451 63.75317 159.32516 64.535079 C 156.78836 66.669467 153.18574 67.859036 148.75164 68.026855 C 147.11118 68.088955 147.01736 68.154172 147.88813 68.624752 C 148.64268 69.032551 149.64382 69.325447 150.51019 69.392147 L 150.51019 69.39163 C 152.01031 69.50711 153.5603 69.354037 156.0158 68.847477 C 161.85926 67.641998 163.19311 67.45757 166.4932 67.39847 L 167.74325 67.375732 L 167.74325 62.248397 L 171.54353 62.248397 L 171.54353 67.356095 L 172.94913 67.387618 C 176.2171 67.461018 177.16344 67.58196 181.83903 68.522949 C 183.56199 68.869709 185.39063 69.21236 185.90286 69.28466 C 187.14387 69.45993 188.90184 69.456005 189.78531 69.275875 C 190.83641 69.061555 192.12626 68.455473 192.12626 68.175684 C 192.12626 68.078914 191.95955 68.053694 191.30047 68.052694 C 190.33974 68.050664 188.32925 67.861836 187.31311 67.678556 C 184.35217 67.144487 181.78047 65.98406 179.90685 64.336641 C 179.63566 64.098202 179.38251 63.922568 179.34461 63.945968 C 179.30671 63.969368 179.28125 63.938771 179.28725 63.878271 C 179.29363 63.817742 179.07591 63.522874 178.80356 63.223014 C 177.77827 62.094125 176.79284 60.370644 176.17478 58.626396 C 175.88718 57.814726 175.88426 57.793748 176.06522 57.845048 C 178.14234 58.433837 179.08773 58.58243 181.08559 58.63363 C 183.39873 58.69291 185.15438 58.46946 187.04595 57.87502 C 187.99375 57.577181 187.91343 57.441343 186.74984 57.376343 C 185.47953 57.305363 184.63995 57.165727 183.49009 56.834257 C 181.72168 56.324458 180.14808 55.549144 178.74826 54.497965 C 178.32106 54.177156 177.94916 53.915055 177.92196 53.915055 C 177.89476 53.915055 177.9646 54.019539 178.0775 54.147599 L 178.28317 54.38066 L 178.05063 54.175505 C 177.92273 54.062785 177.83588 53.952658 177.85788 53.930558 C 177.87993 53.908498 177.47017 53.445973 176.94734 52.902714 C 176.42451 52.359445 175.73948 51.555303 175.42495 51.115743 C 174.8728 50.344084 173.68007 48.117859 173.77027 48.027559 C 173.79458 48.003259 174.15319 48.095725 174.56712 48.232715 C 176.62135 48.912574 179.19851 48.929359 181.2463 48.27664 C 182.79528 47.78291 182.90272 47.578522 181.69279 47.426562 C 179.13671 47.105553 176.72145 46.045132 174.75057 44.379203 C 174.00373 43.747964 173.76277 43.597408 174.05759 43.945638 L 174.21882 44.135807 L 174.03072 43.976644 C 173.92705 43.888924 173.86301 43.782916 173.88861 43.741516 C 173.9142 43.700106 173.65178 43.353097 173.3057 42.969987 C 171.79225 41.294589 170.69819 39.134445 170.19685 36.832377 C 170.06586 36.230878 169.87282 34.606221 169.85992 33.996891 C 169.85918 33.961991 169.80641 33.933329 169.74261 33.933329 z " />
    <path
       id="path10958-5"
       style="fill:#000000;stroke-width:0.0846667"
       d="M 203.08373 15.207857 C 201.89997 15.228815 200.56811 15.413148 198.7274 15.797485 C 192.88685 17.016979 191.55356 17.204794 188.25363 17.271814 L 186.90539 17.299202 L 186.90539 22.591903 L 183.10562 22.591903 L 183.10562 17.324007 L 181.79821 17.297652 C 178.53007 17.232093 177.58304 17.113277 172.90521 16.183508 C 171.18142 15.840883 169.35173 15.502686 168.83931 15.431616 C 167.59789 15.25932 165.84042 15.267453 164.95737 15.449703 C 163.90679 15.666543 162.61828 16.27631 162.61901 16.556095 C 162.61923 16.652864 162.78572 16.6776 163.4448 16.677018 C 164.40554 16.676743 166.41713 16.860495 167.43371 17.041337 C 170.39592 17.568302 172.97016 18.722246 174.84773 20.365165 C 175.11949 20.602953 175.37268 20.778295 175.41048 20.754806 C 175.44828 20.731316 175.47384 20.761445 175.46784 20.821985 C 175.46162 20.882529 175.68001 21.177003 175.95308 21.476208 C 176.98108 22.602634 177.97099 24.323865 178.59323 26.066626 C 178.88282 26.877606 178.88594 26.898834 178.70485 26.847974 C 176.62633 26.264169 175.6804 26.117687 173.68242 26.071277 C 171.36914 26.017547 169.61426 26.245381 167.72413 26.844356 C 166.77704 27.14447 166.85752 27.27979 168.02127 27.342 C 169.29174 27.409933 170.13193 27.547624 171.28257 27.876335 C 173.05221 28.381889 174.62724 29.153439 176.02957 30.201257 C 176.45755 30.52104 176.83022 30.782685 176.85742 30.782617 C 176.88461 30.782552 176.81404 30.677862 176.70084 30.550073 L 176.49517 30.317529 L 176.72823 30.522168 C 176.85641 30.63458 176.94298 30.744438 176.92098 30.766597 C 176.89898 30.78871 177.30998 31.250371 177.83411 31.792375 C 178.35824 32.334388 179.04556 33.136925 179.36115 33.575728 C 179.91513 34.346062 181.11296 36.569268 181.02306 36.659778 C 180.99881 36.684136 180.63994 36.592686 180.22569 36.456689 C 178.16983 35.781755 175.59273 35.770636 173.54651 36.428267 C 171.99872 36.925711 171.8918 37.130839 173.1021 37.279895 C 175.65894 37.594772 178.07668 38.649006 180.05154 40.310201 C 180.79992 40.939646 181.04122 41.090253 180.74556 40.742733 L 180.58381 40.552563 L 180.77295 40.71121 C 180.87678 40.798682 180.94056 40.904361 180.91506 40.945821 C 180.88957 40.987292 181.15252 41.334039 181.49952 41.716317 C 183.01698 43.38808 184.11651 45.545833 184.62336 47.846692 C 184.75581 48.447874 184.9527 50.071328 184.967 50.680627 C 184.96783 50.715527 185.02103 50.744295 185.08483 50.744189 C 185.17067 50.743983 185.21498 50.539527 185.25588 49.960258 C 185.33493 48.839927 185.5348 47.697224 185.82225 46.720662 C 186.45213 44.580838 188.00765 42.092617 189.55897 40.742733 C 189.85411 40.485905 190.09757 40.245065 190.10157 40.207365 C 190.10497 40.169665 190.07004 40.162435 190.02354 40.191345 C 189.86363 40.290719 189.93895 40.17823 190.1703 39.972754 C 190.37909 39.787355 190.38642 39.785852 190.24213 39.957768 C 190.15399 40.062782 190.10458 40.148571 190.13258 40.148454 C 190.16056 40.148386 190.53722 39.894723 190.96974 39.584664 C 191.88931 38.925467 193.45513 38.138072 194.5783 37.769788 C 195.39042 37.503518 197.02515 37.16844 197.51921 37.16724 C 197.83756 37.166474 197.96223 37.030951 197.79361 36.869584 C 197.60804 36.692 195.9665 36.173739 195.14571 36.033459 C 194.17497 35.86779 192.36756 35.872417 191.4002 36.043278 C 190.9868 36.11628 190.28313 36.299173 189.83647 36.449455 L 189.02464 36.722306 L 189.2577 36.171436 C 190.05512 34.288918 191.53418 32.255559 193.05282 30.952633 C 195.69019 28.689902 198.652 27.468699 202.00834 27.260868 C 202.90252 27.205503 203.13554 27.101446 202.78349 26.914119 C 202.42279 26.722195 200.31566 26.246936 199.22247 26.111068 C 197.81881 25.936566 195.11376 25.984918 193.92666 26.205636 C 193.26448 26.328754 191.94724 26.643197 191.3692 26.815934 L 191.1811 26.872262 L 191.42139 26.163778 C 191.99876 24.459468 192.73676 23.093655 193.78507 21.789368 C 194.48451 20.919138 194.50143 20.901772 195.4289 20.117635 C 197.96057 17.977168 201.55995 16.778994 205.99363 16.600537 C 207.63395 16.534501 207.72801 16.469063 206.85611 16.000574 C 206.10058 15.594586 205.09851 15.304 204.23198 15.23938 L 204.23146 15.239897 C 203.85636 15.211927 203.47831 15.200871 203.08373 15.207857 z " />
    <path
       id="path10144"
       style="fill:#000000;stroke-width:0.0846667"
       d="M 78.380229 81.895776 L 79.240641 83.6104 C 82.58749 90.275668 84.36575 97.253656 84.59432 104.61997 L 84.649097 106.38885 L 82.921037 106.32994 C 77.667682 106.15151 73.03835 105.54628 66.333419 104.16108 C 56.147588 102.05681 54.603585 101.82599 51.220646 101.90231 C 48.369967 101.96661 46.52487 102.39723 44.406075 103.49239 L 43.399935 104.01226 L 45.913477 105.26851 C 50.822392 107.72239 55.464699 110.56368 59.117839 113.34967 C 59.798651 113.86888 61.726474 115.40526 62.574992 116.10144 L 62.574992 108.44764 L 63.456075 108.44764 L 63.456592 108.39132 L 64.535596 108.41509 L 65.614083 108.43886 L 65.614083 108.44764 L 66.37476 108.44764 L 66.37476 119.51364 L 67.460482 120.60194 C 68.451985 121.59585 69.569238 122.75168 69.943018 123.17078 C 70.23557 123.49879 70.588853 123.89197 70.868026 124.2012 L 70.868026 110.25425 L 74.667794 110.25425 L 74.667794 128.86294 L 74.948397 129.24017 C 76.516942 131.34758 77.507908 132.7799 78.720776 134.68842 L 78.720776 115.48236 L 79.499023 115.48236 L 79.499023 115.46634 L 80.557357 115.46634 L 81.61569 115.46634 L 81.61569 115.48236 L 82.466801 115.48236 L 82.466801 141.22756 C 84.17761 144.50277 85.995385 148.59208 87.34609 152.21138 C 87.800533 153.42909 88.50624 155.48228 89.038493 157.08964 L 89.038493 112.30632 L 92.705969 112.30632 L 92.705969 157.01987 L 92.869267 156.52946 C 94.154223 152.67253 95.002643 150.42353 96.287146 147.47007 C 97.325749 145.082 97.654264 144.38246 98.832727 142.05128 L 99.284896 141.15728 L 99.284896 115.42758 L 103.01697 115.42758 L 103.01697 134.6538 C 103.20186 134.36307 103.3901 134.06734 103.53477 133.83886 C 103.77063 133.46633 104.07035 133.00917 104.20087 132.8229 C 105.69145 130.69557 106.43301 129.66084 107.07667 128.80609 L 107.07667 110.37104 L 107.90452 110.37104 L 107.90452 110.34365 L 109.00523 110.34365 L 110.10594 110.34365 L 110.10594 110.37104 L 110.87644 110.37104 L 110.87644 124.16348 C 111.51283 123.44128 111.95274 122.96064 112.00092 122.95994 C 112.04152 122.95909 112.02427 123.02574 111.96267 123.10721 C 111.86624 123.23469 111.86739 123.24033 111.97249 123.14649 C 112.03959 123.08649 112.09494 122.98343 112.09548 122.91756 C 112.09648 122.77157 114.42378 120.40816 114.51239 120.46293 C 114.54699 120.48433 114.62718 120.43543 114.69067 120.35441 C 114.79512 120.22117 114.79163 120.21829 114.6576 120.3234 C 114.5761 120.3873 114.50981 120.41338 114.50981 120.38128 C 114.50981 120.34918 114.87151 119.97734 115.31389 119.55498 L 115.3697 119.50175 L 115.3697 108.15205 L 119.16947 108.15205 L 119.16947 116.08232 C 121.3924 114.17643 125.8867 110.90772 128.53479 109.28842 C 131.23191 107.63914 134.4656 105.87288 136.92756 104.7042 L 138.30577 104.04998 L 137.73216 103.71667 C 136.43462 102.96387 134.68992 102.35977 132.98206 102.07181 C 132.27503 101.9526 131.6075 101.9193 129.9192 101.91936 C 127.04363 101.91944 125.26822 102.14407 120.52081 103.1074 C 119.05396 103.40504 116.46322 103.93145 114.76354 104.27736 C 110.0515 105.2363 107.18939 105.6886 103.69496 106.02557 C 101.74747 106.21337 97.414904 106.41818 97.193034 106.33304 C 97.057724 106.28114 97.05044 106.15515 97.10415 104.77552 C 97.40655 97.000405 99.082732 90.409196 102.50227 83.546838 C 102.87354 82.801775 103.21217 82.156014 103.2552 82.111784 C 103.2982 82.067584 103.33374 82.000722 103.33374 81.963472 C 103.33374 81.926179 97.719024 81.895776 90.856986 81.895776 L 78.380229 81.895776 z " />
    <path
       id="path12918-1"
       style="fill:#000000;stroke-width:0.0846667"
       d="M 175.95257 6.4254476 C 175.53612 6.4242216 175.10572 6.4408694 174.66066 6.4755737 C 172.70383 6.6281736 172.08806 6.735183 165.88135 7.9995117 C 160.6862 9.0577707 158.23643 9.342264 153.62576 9.4221639 L 151.52253 9.4583374 L 151.52253 14.892631 L 147.72277 14.892631 L 147.72277 9.4521362 L 145.92081 9.4195801 C 140.70027 9.3255502 138.87936 9.0831169 130.64112 7.3835286 C 125.88154 6.4015996 123.80549 6.2305022 121.43186 6.6244019 C 120.25838 6.8191317 118.99335 7.3016577 117.93854 7.957137 C 117.57634 8.1822068 117.82106 8.231548 119.80147 8.3323079 C 122.03864 8.4461378 123.8514 8.6569119 125.42284 8.9865316 C 132.63611 10.49955 137.54877 14.320267 140.11444 20.412191 C 140.41702 21.13066 141.07567 23.020774 141.03687 23.059574 C 141.01904 23.077394 140.60841 22.978739 140.12426 22.83995 C 135.72157 21.577851 130.81319 21.479859 126.51114 22.568648 C 124.97412 22.957648 124.27126 23.197912 124.24306 23.344312 C 124.22166 23.455411 124.38548 23.483863 125.30295 23.527763 C 130.55877 23.779163 135.58665 25.983105 139.25145 29.641602 C 141.31038 31.69699 142.66053 33.662197 143.85479 36.342485 L 144.27543 37.28713 L 143.82481 37.087659 C 141.8524 36.21537 138.8464 35.777505 136.54877 36.027775 C 134.93101 36.203995 133.15697 36.649407 131.95112 37.182227 C 131.53339 37.366816 131.34066 37.64163 131.62917 37.64163 C 132.02962 37.64163 133.8896 37.934204 134.6817 38.121704 C 136.84622 38.634094 139.11331 39.614637 140.94695 40.831616 C 141.50575 41.202486 142.02024 41.560633 142.09003 41.627433 C 142.15988 41.694223 142.42664 41.919221 142.68276 42.127661 C 144.96015 43.981069 147.00227 46.772937 148.16563 49.622294 C 149.04066 51.765422 149.62498 54.566335 149.62498 56.616182 L 149.62549 56.616182 C 149.62549 57.058812 149.64429 57.115377 149.79447 57.115377 C 149.9498 57.115377 149.96397 57.058511 149.96397 56.434281 C 149.96397 54.442243 150.53239 51.723667 151.37939 49.664669 C 154.05148 43.169115 159.93561 38.662355 166.92159 37.760486 C 168.41875 37.567216 168.42463 37.489116 166.98154 36.950716 C 164.38066 35.980347 161.60316 35.72224 158.85387 36.19469 C 157.90419 36.35789 156.34472 36.796385 155.69334 37.083525 L 155.36881 37.226668 L 155.42927 37.031848 C 155.76585 35.947549 157.08579 33.537643 158.03997 32.265214 C 159.20159 30.716146 160.64814 29.184096 161.69039 28.399817 C 161.89739 28.244057 162.05127 28.072211 162.03197 28.017411 C 162.01268 27.962601 162.06127 27.867138 162.13997 27.805538 C 162.26856 27.704828 162.27127 27.708562 162.16685 27.841711 C 161.97271 28.089251 162.14862 28.00964 162.68206 27.608651 C 165.82709 25.244493 170.13678 23.729179 174.28807 23.52828 C 175.20404 23.48395 175.36729 23.455481 175.34589 23.344312 C 175.3175 23.196832 174.60636 22.957099 173.06437 22.574849 C 168.50965 21.445771 163.67274 21.56742 159.16703 22.924699 C 158.85023 23.020109 158.57488 23.082475 158.55518 23.062675 C 158.48503 22.992535 158.95789 21.604477 159.44453 20.452498 C 160.63613 17.631711 162.21158 15.421132 164.37498 13.534574 C 164.78052 13.180925 165.09496 12.863925 165.07416 12.830225 C 165.05329 12.796485 165.10272 12.716991 165.18372 12.653491 C 165.31692 12.548991 165.31987 12.551967 165.21472 12.686047 C 165.15132 12.767507 165.11924 12.834359 165.14444 12.834359 C 165.16963 12.834359 165.60278 12.555991 166.10717 12.215792 C 169.71698 9.781054 174.15608 8.5592377 180.34196 8.297168 C 182.05306 8.224678 182.07684 8.1696888 180.69801 7.4760295 C 179.30478 6.7751189 177.75715 6.43076 175.95257 6.4254476 z " />
    <path
       style="fill:none;stroke:#a60000;stroke-width:0.0846667;stroke-opacity:1"
       d="m 31.211485,101.01673 c 6.09518,-0.80462 11.13305,-4.968454 13.01058,-10.753354 0.59749,-1.84095 0.72738,-2.70048 0.72926,-4.826 0.002,-1.93832 -0.0522,-2.43953 -0.42491,-3.94768 -1.2584,-5.09223 -5.27359,-9.4181 -10.28376,-11.07947 -3.56079,-1.18076 -7.35089,-1.07594 -10.8182,0.29917 -0.54604,0.21656 -1.1452,0.48095 -1.33147,0.58753 -0.18626,0.10659 -0.52916,0.29916 -0.762,0.42793 -0.8924,0.49355 -2.74481,1.90383 -3.20401,2.43927 -0.0858,0.10006 -0.3368,0.37242 -0.55774,0.60525 -1.81403,1.91161 -3.24918,4.77449 -3.81986,7.62 -0.23317,1.16262 -0.31829,3.58846 -0.17052,4.85958 0.31118,2.67659 1.37855,5.32701 3.03102,7.52639 0.95716,1.27394 1.39248,1.73841 2.46454,2.62954 2.42638,2.0169 5.06948,3.189084 8.14091,3.610374 1.10761,0.15193 2.85153,0.15257 3.99616,0.001 z"
       id="path10770" />
    <path
       id="rect5420-3-6"
       style="stroke:#000000;stroke-width:0.267953"
       d="M 27.330115 72.65293 L 27.330115 83.464156 L 16.518372 83.464156 L 16.518372 87.260824 L 27.330115 87.260824 L 27.330115 98.072567 L 31.126782 98.072567 L 31.126782 87.260824 L 41.938009 87.260824 L 41.938009 83.464156 L 31.126782 83.464156 L 31.126782 72.65293 L 27.330115 72.65293 z " />
  </g>
</svg>
