<?xml version="1.0" encoding="UTF-8" standalone="no"?>
<!-- Created with Inkscape (http://www.inkscape.org/) -->

<svg
   width="210mm"
   height="297mm"
   viewBox="0 0 210 297"
   version="1.1"
   id="svg5"
   inkscape:version="1.2.2 (732a01da63, 2022-12-09)"
   sodipodi:docname="Reh.svg"
   xmlns:inkscape="http://www.inkscape.org/namespaces/inkscape"
   xmlns:sodipodi="http://sodipodi.sourceforge.net/DTD/sodipodi-0.dtd"
   xmlns="http://www.w3.org/2000/svg"
   xmlns:svg="http://www.w3.org/2000/svg">
  <sodipodi:namedview
     id="namedview7"
     pagecolor="#ffffff"
     bordercolor="#666666"
     borderopacity="1.0"
     inkscape:pageshadow="2"
     inkscape:pageopacity="0.0"
     inkscape:pagecheckerboard="0"
     inkscape:document-units="mm"
     showgrid="false"
     inkscape:zoom="3.9585238"
     inkscape:cx="225.33653"
     inkscape:cy="296.5752"
     inkscape:window-width="1090"
     inkscape:window-height="841"
     inkscape:window-x="-8"
     inkscape:window-y="-8"
     inkscape:window-maximized="1"
     inkscape:current-layer="layer1"
     inkscape:showpageshadow="2"
     inkscape:deskcolor="#d1d1d1" />
  <defs
     id="defs2">
    <inkscape:path-effect
       effect="fill_between_many"
       method="originald"
       linkedpaths="#path950,0,1"
       id="path-effect2603" />
  </defs>
  <g
     inkscape:label="Ebene 1"
     inkscape:groupmode="layer"
     id="layer1">
    <path
       style="fill:#000000;stroke-width:0.264583"
       d="m 116.06062,74.915841 v 8.636165 h -3.79977 v -8.655802 l -1.03818,-0.05736 c -1.90659,0.02915 -2.67133,0.166262 -3.83646,0.687813 -2.91834,1.306339 -5.85347,4.74818 -6.87813,8.065658 -2.094514,6.781198 -3.831004,21.631306 -4.147553,35.472256 l -0.171049,7.48481 -0.891419,1.14412 c -1.061329,1.36225 -1.934766,3.70056 -1.934766,5.17849 v 1.06505 h 5.688542 5.688545 v -1.06505 c 0,-1.47672 -0.89015,-3.86328 -1.9172,-5.14025 l -0.86093,-1.07022 -0.0832,-4.72064 c -0.12666,-7.19326 0.98387,-13.71012 3.02824,-17.76946 1.64589,-3.26813 4.84012,-6.962364 6.69055,-7.737513 1.29597,-0.542899 3.92942,-0.511641 5.13612,0.06098 1.85063,0.878179 5.23994,5.071445 6.80837,8.423255 1.70353,3.64057 2.69733,9.72864 2.73523,16.75402 l 0.0264,4.80074 -0.87798,1.09296 c -1.17402,1.46174 -1.84788,3.05391 -2.06138,4.8705 l -0.17621,1.50068 h 5.85184 5.85235 l -0.15141,-1.25677 c -0.22617,-1.87829 -0.62161,-2.97236 -1.57923,-4.36562 -0.47498,-0.69108 -0.98221,-1.64358 -1.12655,-2.11667 -0.14434,-0.47309 -0.32903,-4.31271 -0.41083,-8.53281 -0.1432,-7.38793 -0.62566,-15.02241 -1.21233,-19.182292 -0.79406,-5.630425 -2.22835,-13.30897 -2.78639,-14.917436 -1.20709,-3.479295 -3.70401,-6.42438 -6.69571,-7.897192 -1.49416,-0.735576 -0.90623,-0.894441 -3.06545,-0.798401 l -0.92552,0.04082 c 0,0 -0.6071,0.0031 -0.8785,0.0052 z"
       id="path4893" />
    <path
       inkscape:original-d="M 0,0"
       inkscape:path-effect="#path-effect2603"
       d="M 0,0"
       id="path2605"
       class="UnoptimicedTransforms" />
    <path
       style="fill:#000000;stroke-width:0.264583"
       d="m 96.987878,4.0746867 -0.720369,3.8834839 -3.736206,-0.692981 0.857829,-4.6219401 c -0.0077,-0.00304 -0.12299,-0.049093 -0.12299,-0.049093 0,0 0.125901,-0.06425 -1.078487,-0.1147217 -2.065488,-0.08656 -2.413166,-0.014426 -6.129342,1.2712403 -2.166918,0.7496782 -5.516132,1.76936 -7.44244,2.2660115 -4.172546,1.0757879 -5.022354,1.4765444 -5.490104,2.5889893 -0.29685,0.7059963 -0.294761,0.9818943 0.01292,1.7182417 1.081869,2.589268 2.853874,3.765709 6.054411,4.019909 1.828158,0.145202 2.349345,0.299321 3.356384,0.992188 0.65563,0.451081 1.957801,1.190817 2.89388,1.643827 0.93608,0.45301 2.115186,1.027937 2.619996,1.277442 1.274708,0.630022 2.124934,1.982852 2.124934,3.381705 0,0.621675 -0.30263,2.38568 -0.67231,3.919658 -2.212418,9.180689 -2.305608,18.754024 -0.24598,25.273909 1.554769,4.921716 4.007644,9.227224 6.622852,11.62358 1.513038,1.386429 3.561243,2.290816 4.233845,2.290816 l 0.81184,0.322461 0.61754,-8.229472 c 0.72504,0.03683 3.42692,0.171855 3.80028,0.131775 l -0.71727,9.566341 0.25115,0.09974 c 0.22324,0.20457 2.6677,0.753926 5.00951,0.991154 2.42694,0.245851 11.98507,-0.07104 14.15521,-0.469222 2.68031,-0.491789 5.1543,-1.188426 5.57175,-1.446423 l 4.39973,-1.150835 -0.78444,-7.915279 c 0.72051,-0.089 3.40535,-0.423114 3.76617,-0.527099 l 0.67748,6.834725 c 0.839,-0.399115 1.66519,-0.790279 2.56264,-1.225249 4.49142,-2.176894 4.99366,-2.492445 6.44353,-4.046781 1.8989,-2.035734 2.89366,-3.932434 3.44527,-6.568591 0.54998,-2.628379 0.31444,-4.950665 -0.8537,-8.419125 -0.50725,-1.50616 -0.88476,-2.773431 -0.8387,-2.816365 0.0461,-0.04293 0.94205,-0.209874 1.99109,-0.371037 2.60709,-0.400526 3.19692,-0.711907 3.51451,-1.855184 0.14515,-0.522546 0.26481,-1.064565 0.26562,-1.204578 8e-4,-0.140011 0.49842,-0.760805 1.10588,-1.37976 1.03692,-1.056554 1.10802,-1.227383 1.1653,-2.788461 0.0336,-0.91452 0.14489,-2.044171 0.24701,-2.510441 0.16571,-0.756628 0.11307,-0.865789 -0.48731,-1.016475 -0.50131,-0.12582 -0.97983,0.04252 -1.87792,0.660425 -0.66283,0.456037 -2.2481,1.329207 -3.52278,1.94045 -2.24508,1.076584 -3.98999,2.493015 -5.22862,4.244185 l -0.52813,0.747241 -2.32958,-1.192692 c -3.74223,-1.915507 -7.52693,-2.490643 -10.74766,-1.633492 -0.78956,0.21013 -2.7541,1.033632 -4.36563,1.829863 -4.66648,2.305626 -7.03026,2.915006 -11.26443,2.903698 -4.25411,-0.01135 -8.64049,-1.185809 -10.48876,-2.808614 -1.38059,-1.212168 -1.97475,-2.598289 -2.11202,-4.927347 -0.41515,-7.043846 -0.94349,-14.259137 -1.19424,-16.301848 -0.33187,-2.703497 -1.25073,-5.7540937 -2.17299,-7.2150632 -0.900266,-1.4260996 -3.101107,-2.795695 -3.101107,-2.795695 0.01882,0.00688 -0.290168,-0.1148997 -0.325045,-0.1291911 z"
       id="path4861" />
    <path
       style="fill:#000000;stroke-width:0.264583"
       d="M 53.16523,76.512642 V 86.560091 H 49.365462 V 76.512642 c -0.02067,0.0018 -0.07621,0.003 -0.07286,0.0052 l -0.934826,-0.267167 c -5.205318,0 -9.696164,2.336299 -12.405445,6.45387 -1.178476,1.791053 -1.823167,3.606106 -2.641182,7.436755 -1.110877,5.202072 -1.302046,7.132324 -1.286226,12.964582 0.01298,4.78461 0.109059,6.07068 0.694014,9.26042 0.528714,2.88306 0.679706,4.5612 0.680579,7.5706 0.0014,4.77576 -0.274305,6.32897 -1.42782,8.03981 -0.490576,0.72761 -1.007973,1.56105 -1.149801,1.85209 -0.383148,0.78626 -0.592847,2.46385 -0.417545,3.34036 l 0.153995,0.77101 5.58829,-0.0713 5.588289,-0.0713 -0.03359,-1.35289 c -0.04488,-1.8016 -0.456958,-2.96133 -1.729094,-4.86637 l -1.059367,-1.58647 0.09147,-5.88646 0.09198,-5.88698 2.026233,-3.83646 c 1.900244,-3.59771 2.859856,-6.16024 3.666959,-9.78958 0.839273,-3.774002 2.467567,-5.123339 6.205823,-5.142839 1.690418,-0.0088 2.338225,0.107056 3.215824,0.574125 1.597189,0.850039 2.666643,2.278742 3.011703,4.023524 0.895449,4.52787 1.607715,6.35657 5.052921,12.97027 l 0.890385,1.70894 v 5.73453 5.73454 l -0.823205,1.15497 c -0.45288,0.63541 -1.031163,1.56119 -1.285193,2.05723 -0.48553,0.94812 -0.955336,3.6236 -0.736906,4.19665 0.09911,0.25958 1.391419,0.31978 5.720064,0.26458 l 5.591907,-0.0713 0.0832,-1.00563 c 0.1353,-1.64096 -0.782404,-4.01252 -2.254643,-5.82755 -0.590859,-0.72846 -0.606681,-0.89713 -0.606681,-6.49159 0,-4.87394 0.09004,-6.20327 0.593762,-8.77724 0.793419,-4.05425 0.853431,-13.363605 0.114722,-17.779279 -1.275919,-7.626849 -2.463766,-10.693235 -5.204334,-13.433805 -2.906427,-2.906424 -4.976175,-4.79119 -9.161198,-4.175973 l -1.431437,0.210324 c 0,0 -0.462126,-0.003 -0.600997,-0.0041 z"
       id="path4911" />
    <path
       style="fill:#040404;stroke:none;stroke-width:0.264583"
       d="m 26.70055,13.142754 c -4.248235,1.250079 -6.15186,6.34815 -3.616833,10.054166 3.788016,5.537725 9.923821,8.465615 14.113867,13.49375 2.676228,3.211507 3.993643,7.252238 4.319633,11.377084 -1.937648,-1.675869 -4.654195,-4.590732 -7.633642,-3.243213 -2.664858,1.205439 0.590102,7.009274 1.858801,8.182963 2.486077,2.300288 4.130866,2.334741 7.312215,2.334741 0,0 0.397341,-0.01105 0.496094,-0.01344 v -5.975862 h 3.799768 v 5.8229 c 0.03238,-0.006 0.04997,-0.0118 0.03772,-0.01757 3.033967,0 4.373443,0.148718 6.82904,-1.88619 1.475839,-1.222899 5.030076,-6.531549 2.509924,-8.332308 -2.593967,-1.853398 -6.201132,1.528576 -7.801591,3.127975 0.25664,-12.432228 12.330753,-15.831623 18.362187,-24.870834 2.238638,-3.354966 1.011396,-9.294663 -3.54552,-9.789583 1.057809,3.330277 1.305714,7.247092 -1.852083,9.525 -0.34105,-2.274518 -1.742555,-4.358491 -3.704167,-5.55625 1.054893,4.428296 -0.551122,7.507817 -2.38125,11.377083 -1.743068,-2.835277 -3.761843,-5.281877 -7.14375,-6.085416 0.817299,1.551518 1.79156,3.036361 2.20245,4.7625 1.533788,6.441543 -3.832491,10.007072 -5.37745,15.610416 H 44.9568 c -1.65381,-4.517225 -6.027014,-8.362955 -5.793444,-13.49375 0.11872,-2.607727 1.494652,-4.531519 2.353861,-6.879166 -2.933267,0.998799 -5.704554,2.9927 -6.614583,6.085416 -2.974867,-3.499376 -2.999367,-7.066847 -2.910417,-11.377083 h -0.264583 l -3.439584,5.55625 C 25.532103,19.91056 25.509592,16.86732 26.70055,13.142754 Z"
       id="path5221" />
    <rect
       style="fill:#000000;stroke:#000000;stroke-width:0.264583"
       id="rect4788"
       width="3.8"
       height="20"
       x="3.4028807"
       y="5.6714678" />
  </g>
</svg>
